<?xml version="1.0" encoding="UTF-8" standalone="no"?>
<!-- Created with Inkscape (http://www.inkscape.org/) -->

<svg
   xmlns:dc="http://purl.org/dc/elements/1.1/"
   xmlns:cc="http://creativecommons.org/ns#"
   xmlns:rdf="http://www.w3.org/1999/02/22-rdf-syntax-ns#"
   xmlns:svg="http://www.w3.org/2000/svg"
   xmlns="http://www.w3.org/2000/svg"
   xmlns:sodipodi="http://sodipodi.sourceforge.net/DTD/sodipodi-0.dtd"
   xmlns:inkscape="http://www.inkscape.org/namespaces/inkscape"
   width="120"
   height="120"
   viewBox="0 0 120 120"
   id="svg2"
   version="1.1"
   inkscape:version="0.92.2 5c3e80d, 2017-08-06"
   sodipodi:docname="exit_open.svg">
  <defs
     id="defs4" />
  <sodipodi:namedview
     id="base"
     pagecolor="#ffffff"
     bordercolor="#666666"
     borderopacity="1.0"
     inkscape:pageopacity="0.0"
     inkscape:pageshadow="2"
     inkscape:zoom="4.8206127"
     inkscape:cx="75.445913"
     inkscape:cy="60.831078"
     inkscape:document-units="px"
     inkscape:current-layer="layer1"
     showgrid="false"
     inkscape:window-width="1617"
     inkscape:window-height="879"
     inkscape:window-x="1986"
     inkscape:window-y="61"
     inkscape:window-maximized="0"
     units="px" />
  <metadata
     id="metadata7">
    <rdf:RDF>
      <cc:Work
         rdf:about="">
        <dc:format>image/svg+xml</dc:format>
        <dc:type
           rdf:resource="http://purl.org/dc/dcmitype/StillImage" />
        <dc:title></dc:title>
      </cc:Work>
    </rdf:RDF>
  </metadata>
  <g
     inkscape:label="Layer 1"
     inkscape:groupmode="layer"
     id="layer1"
     transform="translate(0,-932.36218)">
    <path
       style="opacity:0.58300003;fill:#999999;fill-opacity:1;stroke:#1a1a1a;stroke-width:1.055004;stroke-miterlimit:4;stroke-dasharray:none;stroke-opacity:1"
       d="m 60.57974,944.23937 a 46.466714,46.569653 0 0 0 -46.36678,46.63659 46.466714,46.569653 0 0 0 46.50005,46.50254 46.466714,46.569653 0 0 0 46.43317,-46.56958 l 0,-0.13357 A 46.466714,46.569653 0 0 0 60.57974,944.23937 Z"
       id="path4346-1"
       inkscape:connector-curvature="0" />
    <path
       style="opacity:1;fill:#000000;fill-opacity:1;stroke:none;stroke-width:0.2;stroke-miterlimit:4;stroke-dasharray:none;stroke-opacity:1"
       d="m 60.58461,946.48093 a 44.328032,44.328032 0 0 1 44.42293,44.20102 l 0,0.12696 A 44.328032,44.328032 0 0 1 60.71155,1035.1369 44.328032,44.328032 0 0 1 16.35159,990.87238 44.328032,44.328032 0 0 1 60.5846,946.48093 Z"
       id="path4149-8-9"
       inkscape:connector-curvature="0" />
    <path
       inkscape:connector-curvature="0"
       style="fill:#000047;stroke:none;fill-opacity:1"
       d="m 49.84511,1029.7705 c -5.93661,-3.4304 -14.58509,-8.4312 -19.21883,-11.113 l -8.42499,-4.8759 -0.3828,-22.64522 -0.3828,-22.64523 19.2219,-11.34924 19.22191,-11.34923 7.82317,4.38113 c 4.30273,2.40963 13.16929,7.3353 19.70347,10.94594 l 11.88028,6.5648 0.27864,22.58312 0.27863,22.58313 -19.60229,11.5785 -19.60229,11.5785 -10.79386,-6.237 z"
       id="path4173-2" />
    <path
       style="fill:#b3b3b3;stroke:none;fill-opacity:1"
       d="m 60.58085,944.95237 a 45.856585,45.856585 0 0 0 -6.67367,0.56063 c -1.7141,1.31686 -2.64454,2.22137 -2.49895,2.47355 0.0821,0.14213 9.37615,5.47534 20.65324,11.85184 11.2771,6.37649 20.56261,11.56113 20.63497,11.52176 0.0444,-0.0242 0.0766,-6.26698 0.0919,-13.26661 A 45.856585,45.856585 0 0 0 60.58084,944.95237 Z M 47.6621,946.86784 A 45.856585,45.856585 0 0 0 17.76718,974.698 c 0.0466,0.33978 0.0957,0.66141 0.14777,0.94757 l 0.35852,1.96981 20.72382,-11.96508 c 11.39808,-6.58068 20.63479,-12.01487 20.52578,-12.07578 -0.0875,-0.0489 -6.02018,-3.40369 -11.86097,-6.70668 z m 45.40351,13.90594 0.0736,22.22695 c 0.0404,12.22491 0.0803,23.01337 0.0889,23.97437 l 0.0157,1.7473 11.89602,-6.8686 a 45.856585,45.856585 0 0 0 1.39598,-11.04494 l 0,-0.13153 A 45.856585,45.856585 0 0 0 96.13226,961.77468 c -0.40663,-0.155 -0.79492,-0.29389 -1.14765,-0.40371 l -1.91903,-0.59719 z m -65.18839,12.50031 -11.7061,6.69754 a 45.856585,45.856585 0 0 0 -1.34824,10.90324 45.856585,45.856585 0 0 0 10.79,29.47953 c 0.14329,0.053 0.28834,0.1086 0.43012,0.1589 1.14212,0.4053 2.10321,0.636 2.13586,0.5124 0.0326,-0.1236 -0.0216,-10.9181 -0.12086,-23.98802 l -0.18078,-23.76359 z m 75.21972,30.75161 -20.84164,12.0331 c -11.46301,6.6182 -20.76004,12.0971 -20.65984,12.1753 0.0841,0.066 5.15477,3.0572 11.36078,6.7082 a 45.856585,45.856585 0 0 0 30.64039,-28.0459 c -0.0447,-0.3219 -0.0915,-0.6281 -0.14117,-0.9009 l -0.35852,-1.9698 z m -74.47629,5.9643 c -0.0633,0.036 -0.0437,6.4124 0.009,13.6002 a 45.856585,45.856585 0 0 0 32.08309,13.0752 45.856585,45.856585 0 0 0 6.28367,-0.4916 c 1.00528,-0.7389 1.78803,-1.3877 2.14398,-1.8165 0.30275,-0.3646 -1.92157,-1.7438 -20.0332,-12.4211 -11.20549,-6.6059 -20.42412,-11.9818 -20.48617,-11.9462 z"
       id="path4147-2"
       inkscape:connector-curvature="0" />
    <path
       inkscape:connector-curvature="0"
       style="opacity:1;fill:#e6e6e6;fill-opacity:1;stroke:none;stroke-width:0.2;stroke-miterlimit:4;stroke-dasharray:none;stroke-opacity:1"
       d="m 60.58105,944.95242 a 45.856585,45.856585 0 0 0 -45.75797,45.92251 45.856585,45.856585 0 0 0 45.88949,45.79047 45.856585,45.856585 0 0 0 45.82348,-45.85649 l 0,-0.13152 a 45.856585,45.856585 0 0 0 -45.955,-45.72497 z m 0.004,1.52852 a 44.328032,44.328032 0 0 1 44.42293,44.20102 l 0,0.12695 A 44.328032,44.328032 0 0 1 60.712,1035.1369 44.328032,44.328032 0 0 1 16.35204,990.87239 a 44.328032,44.328032 0 0 1 44.233,-44.39145 z"
       id="path4149-8" />
  </g>
</svg>
