<?xml version="1.0" encoding="UTF-8" standalone="no"?>
<!-- Created with Inkscape (http://www.inkscape.org/) -->

<svg
   xmlns:dc="http://purl.org/dc/elements/1.1/"
   xmlns:cc="http://creativecommons.org/ns#"
   xmlns:rdf="http://www.w3.org/1999/02/22-rdf-syntax-ns#"
   xmlns:svg="http://www.w3.org/2000/svg"
   xmlns="http://www.w3.org/2000/svg"
   xmlns:sodipodi="http://sodipodi.sourceforge.net/DTD/sodipodi-0.dtd"
   xmlns:inkscape="http://www.inkscape.org/namespaces/inkscape"
   width="120"
   height="120"
   viewBox="0 0 120 120"
   id="svg2"
   version="1.1"
   inkscape:version="0.92.2 5c3e80d, 2017-08-06"
   sodipodi:docname="key.svg">
  <defs
     id="defs4" />
  <sodipodi:namedview
     id="base"
     pagecolor="#ffffff"
     bordercolor="#666666"
     borderopacity="1.0"
     inkscape:pageopacity="0.0"
     inkscape:pageshadow="2"
     inkscape:zoom="4.973808"
     inkscape:cx="76.548095"
     inkscape:cy="51.490728"
     inkscape:document-units="px"
     inkscape:current-layer="layer1"
     showgrid="false"
     inkscape:window-width="1920"
     inkscape:window-height="1011"
     inkscape:window-x="0"
     inkscape:window-y="27"
     inkscape:window-maximized="1"
     units="px"
     showguides="false" />
  <metadata
     id="metadata7">
    <rdf:RDF>
      <cc:Work
         rdf:about="">
        <dc:format>image/svg+xml</dc:format>
        <dc:type
           rdf:resource="http://purl.org/dc/dcmitype/StillImage" />
        <dc:title></dc:title>
      </cc:Work>
    </rdf:RDF>
  </metadata>
  <g
     inkscape:label="Layer 1"
     inkscape:groupmode="layer"
     id="layer1"
     transform="translate(0,-932.36216)">
    <path
       style="fill:#1a1a1a;stroke:#1a1a1a;stroke-width:0.5;stroke-miterlimit:4;stroke-dasharray:none"
       d="m 60.658712,960.14153 c -1.30901,-0.0447 -2.6526,0.38065 -3.763834,1.35116 -0.871219,0.7609 -1.568685,1.96151 -1.769213,3.04385 -0.09956,0.53751 -0.104945,1.54422 -0.01093,2.03152 l 0.06693,0.34701 -0.356569,-0.0505 c -0.532589,-0.0761 -1.701704,0.008 -2.33208,0.16804 -1.472295,0.37436 -2.892806,1.4035 -3.721486,2.69548 -1.287082,2.00669 -1.325797,4.53544 -0.102465,6.67927 0.258635,0.45325 0.407514,0.62139 1.189947,1.34707 0.865106,0.80231 0.917131,0.83981 1.586141,1.13256 1.03939,0.45478 1.76714,0.58829 2.94959,0.54101 0.904507,-0.0364 1.135233,-0.0819 1.864843,-0.36205 0.878249,-0.3373 1.382289,-0.6294 1.989169,-1.15442 0.48205,-0.41702 0.45638,-0.3068 -0.25139,1.05197 l -0.54783,1.05195 0.57926,0.71042 c 0.31876,0.39104 0.58457,0.71972 0.59156,0.73092 0.007,0.0113 -0.16558,0.0454 -0.3839,0.0779 -0.37207,0.0546 -0.42266,0.086 -0.79785,0.49046 -0.34134,0.36785 -0.408073,0.48131 -0.452206,0.76778 -0.146644,0.95163 0.542616,1.84107 1.460456,1.88535 l 0.0847,0.004 0.28007,0 0,29.65302 -0.2022,0 c -0.33963,0.01 -0.57835,-0.024 -0.57789,-0.071 0.003,-0.2999 0.0285,-3.6169 0.0287,-3.7174 1.2e-4,-0.1338 -0.004,-0.1343 -1.344334,-0.1421 l -0.595651,-0.01 -0.180333,0.5259 -0.180345,0.5274 -0.390726,0.014 -0.392097,0.017 -0.170773,-0.5192 c -0.09471,-0.2854 -0.205418,-0.5309 -0.244547,-0.5464 -0.06464,-0.025 -1.148689,-0.039 -2.218682,-0.039 l 0,0 c -1.069993,-3e-4 -2.125831,0.014 -2.136712,0.039 -0.03524,0.084 -0.04577,3.3118 -0.01094,3.3444 0.02729,0.025 1.826081,0.049 2.863523,0.039 l 0.312856,-0.01 0.0014,0.7855 0,0.7855 -1.571112,-0.014 c -0.863898,-0.01 -1.58858,-5e-4 -1.610732,0.02 -0.04081,0.036 -0.06439,2.5912 -0.02459,2.6682 0.01189,0.022 0.733707,0.049 1.602534,0.055 l 1.579311,0.014 0.0041,0.7296 c 0.0026,0.4008 -0.01573,0.7531 -0.04099,0.7828 -0.02525,0.03 -0.706066,0.048 -1.513732,0.042 -0.807652,-0.01 -1.514817,-0.01 -1.569747,0.01 -0.07142,0.014 -0.102768,0.482 -0.112026,1.6449 -0.0071,0.8943 0.01828,1.658 0.05601,1.6955 0.06385,0.065 4.224449,0.1271 4.340368,0.065 0.02896,-0.016 0.121494,-0.2323 0.204929,-0.4822 0.08345,-0.2499 0.177907,-0.4798 0.209027,-0.5137 0.03113,-0.033 0.216918,-0.055 0.412585,-0.046 l 0.355207,0.014 0.172144,0.5151 c 0.09677,0.2911 0.210023,0.5243 0.260935,0.5354 0.143238,0.033 1.80493,0.03 1.83342,0 0.0141,-0.015 0.0312,-0.8929 0.0383,-1.9509 l 0.0137,-1.9236 0.26232,-0.017 c 0.13722,-0.01 0.37068,-0.01 0.5369,0.01 l 0,4.6712 c 0,0.6957 0.55977,1.2555 1.25552,1.2555 l 0.75413,0 c 0.69575,0 1.25552,-0.5598 1.25552,-1.2555 l 0,-39.20278 0.35659,0 c 0.98349,-0.13726 1.61864,-1.14878 1.2924,-2.09436 -0.16947,-0.49121 -0.758,-1.00597 -1.2077,-1.05606 -0.16175,-0.0176 -0.29451,-0.048 -0.2951,-0.0683 -6.9e-4,-0.0202 0.25461,-0.35402 0.56696,-0.74183 l 0.56698,-0.70495 -0.4809,-0.93857 c -0.26462,-0.51609 -0.51734,-1.04452 -0.56288,-1.17356 -0.0813,-0.23037 -0.0736,-0.22675 0.43993,0.17761 2.60056,2.04777 6.03827,1.92616 8.41433,-0.29783 1.918051,-1.79529 2.488931,-4.76128 1.38257,-7.18203 -1.08206,-2.36753 -3.59385,-3.86497 -6.17651,-3.68187 -0.28984,0.0242 -0.53757,0.027 -0.55058,0.015 -0.013,-0.0121 0.0131,-0.2582 0.0574,-0.54782 0.10784,-0.70667 0.0224,-1.77283 -0.19535,-2.44548 -0.75871,-2.34509 -2.84451,-3.7262 -5.0262,-3.80073 z m -0.43581,2.43181 c 0.89344,-0.068 1.53575,0.13802 2.20092,0.70768 1.02743,0.8798 1.34962,2.02665 0.93447,3.32393 -0.13226,0.41337 -0.20392,0.522 -0.72953,1.08748 -0.35863,0.3858 -0.56306,0.64798 -0.52872,0.68036 0.069,0.0653 1.28209,1.47501 1.55745,1.8102 l 0.19946,0.24318 0.46177,-0.3593 c 1.47265,-1.15227 3.54296,-1.14018 4.99067,0.0274 1.44617,1.1662 1.90978,3.09801 1.15033,4.79531 l 0,0.004 c -0.20475,0.45758 -0.8249,1.26434 -1.16126,1.511 -0.68517,0.50248 -1.68177,0.84964 -2.4564,0.85522 -1.84858,0.0141 -3.49962,-1.26587 -3.94008,-3.05478 l -0.13798,-0.55603 -0.4604,-0.003 c -0.25353,-7e-4 -0.48161,-0.0218 -0.50686,-0.0452 -0.12218,-0.11337 -0.0429,-0.27919 0.23089,-0.48227 0.56742,-0.42081 0.77081,-1.13887 0.48637,-1.71593 -0.47142,-0.95631 -1.9651,-1.35645 -3.17912,-0.85249 -0.35317,0.14661 -0.48377,0.24432 -0.73364,0.55057 -0.52809,0.64718 -0.4641,1.3135 0.18444,1.93315 0.46688,0.44608 0.43107,0.56903 -0.16804,0.59156 l -0.49047,0.0191 -0.17487,0.60112 c -0.37521,1.29281 -1.162884,2.15418 -2.437275,2.66269 -1.01841,0.40634 -2.263421,0.32967 -3.321191,-0.20356 -0.574934,-0.28978 -1.410217,-1.13987 -1.700901,-1.73095 -0.639031,-1.29959 -0.56022,-2.73703 0.21859,-3.99747 0.992083,-1.60537 3.116826,-2.27361 4.911433,-1.54378 0.262846,0.10687 0.642091,0.34351 0.938572,0.58472 l 0.497284,0.4044 0.539648,-0.65303 c 0.29686,-0.35937 0.7195,-0.84833 0.93994,-1.08613 l 0.40165,-0.43308 -0.35383,-0.26503 c -0.68226,-0.51213 -1.18533,-1.57026 -1.16128,-2.44274 0.006,-0.22304 0.0841,-0.64171 0.17352,-0.93037 0.14744,-0.47547 0.20969,-0.57495 0.65713,-1.0547 0.6378,-0.68391 1.10736,-0.91824 1.96731,-0.98365 z"
       id="path5026-5"
       inkscape:connector-curvature="0" />
    <path
       style="fill:#ffff00;stroke:#1a1a1a;stroke-width:0.5;stroke-miterlimit:4;stroke-dasharray:none"
       d="m 60.344727,959.86524 c -1.30901,-0.0447 -2.6526,0.38065 -3.763834,1.35116 -0.871219,0.7609 -1.568685,1.96151 -1.769213,3.04385 -0.09956,0.53751 -0.104945,1.54422 -0.01093,2.03152 l 0.06693,0.34701 -0.356569,-0.0505 c -0.532589,-0.0761 -1.701704,0.008 -2.33208,0.16804 -1.472295,0.37436 -2.892806,1.4035 -3.721486,2.69548 -1.287082,2.00669 -1.325797,4.53544 -0.102465,6.67927 0.258635,0.45325 0.407514,0.62139 1.189947,1.34707 0.865106,0.80231 0.917131,0.83981 1.586141,1.13256 1.03939,0.45478 1.76714,0.58829 2.94959,0.54101 0.904507,-0.0364 1.135233,-0.0819 1.864843,-0.36205 0.878249,-0.3373 1.382289,-0.6294 1.989169,-1.15442 0.48205,-0.41702 0.45638,-0.3068 -0.25139,1.05197 l -0.54783,1.05195 0.57926,0.71042 c 0.31876,0.39104 0.58457,0.71972 0.59156,0.73092 0.007,0.0113 -0.16558,0.0454 -0.3839,0.0779 -0.37207,0.0546 -0.42266,0.086 -0.79785,0.49046 -0.34134,0.36785 -0.408073,0.48131 -0.452206,0.76778 -0.146644,0.95163 0.542616,1.84107 1.460456,1.88535 l 0.0847,0.004 0.28007,0 0,29.65301 -0.2022,0 c -0.33963,0.01 -0.57835,-0.024 -0.57789,-0.071 0.003,-0.2999 0.0285,-3.6169 0.0287,-3.7174 1.2e-4,-0.1338 -0.004,-0.1343 -1.344334,-0.1421 l -0.595651,-0.01 -0.180333,0.5259 -0.180345,0.5274 -0.390726,0.014 -0.392097,0.017 -0.170773,-0.5192 c -0.09471,-0.2854 -0.205418,-0.5309 -0.244547,-0.5464 -0.06464,-0.025 -1.148689,-0.039 -2.218682,-0.039 l 0,0 c -1.069993,-3e-4 -2.125831,0.014 -2.136712,0.039 -0.03524,0.084 -0.04577,3.3118 -0.01094,3.3444 0.02729,0.025 1.826081,0.049 2.863523,0.039 l 0.312856,-0.01 0.0014,0.7855 0,0.7855 -1.571112,-0.014 c -0.863898,-0.01 -1.58858,-5e-4 -1.610732,0.02 -0.04081,0.036 -0.06439,2.5912 -0.02459,2.6682 0.01189,0.022 0.733707,0.049 1.602534,0.055 l 1.579311,0.014 0.0041,0.7296 c 0.0026,0.4008 -0.01573,0.7531 -0.04099,0.7828 -0.02525,0.03 -0.706066,0.048 -1.513732,0.042 -0.807652,-0.01 -1.514817,-0.01 -1.569747,0.01 -0.07142,0.014 -0.102768,0.482 -0.112026,1.6449 -0.0071,0.8942 0.01828,1.6579 0.05601,1.6954 0.06385,0.065 4.224449,0.1271 4.340368,0.065 0.02896,-0.016 0.121494,-0.2323 0.204929,-0.4822 0.08345,-0.2499 0.177907,-0.4798 0.209027,-0.5137 0.03113,-0.033 0.216918,-0.055 0.412585,-0.046 l 0.355207,0.014 0.172144,0.5151 c 0.09677,0.2911 0.210023,0.5243 0.260935,0.5354 0.143238,0.033 1.80493,0.03 1.83342,0 0.0141,-0.015 0.0312,-0.8929 0.0383,-1.9508 l 0.0137,-1.9236 0.26232,-0.017 c 0.13722,-0.01 0.37068,-0.01 0.5369,0.01 l 0,4.6711 c 0,0.6957 0.55977,1.2555 1.25552,1.2555 l 0.75413,0 c 0.69575,0 1.25552,-0.5598 1.25552,-1.2555 l 0,-39.20267 0.35659,0 c 0.98349,-0.13726 1.61864,-1.14878 1.2924,-2.09436 -0.16947,-0.49121 -0.758,-1.00597 -1.2077,-1.05606 -0.16175,-0.0176 -0.29451,-0.048 -0.2951,-0.0683 -6.9e-4,-0.0202 0.25461,-0.35402 0.56696,-0.74183 l 0.56698,-0.70495 -0.4809,-0.93857 c -0.26462,-0.51609 -0.51734,-1.04452 -0.56288,-1.17356 -0.0813,-0.23037 -0.0736,-0.22675 0.43993,0.17761 2.60056,2.04777 6.03827,1.92616 8.41433,-0.29783 1.91805,-1.79529 2.48893,-4.76128 1.38257,-7.18203 -1.08206,-2.36753 -3.59385,-3.86497 -6.17651,-3.68187 -0.28984,0.0242 -0.53757,0.027 -0.55058,0.015 -0.013,-0.0121 0.0131,-0.2582 0.0574,-0.54782 0.10784,-0.70667 0.0224,-1.77283 -0.19535,-2.44548 -0.75871,-2.34509 -2.84451,-3.7262 -5.0262,-3.80073 z m -0.43581,2.43181 c 0.89344,-0.068 1.53575,0.13802 2.20092,0.70768 1.02743,0.8798 1.34962,2.02665 0.93447,3.32393 -0.13226,0.41337 -0.20392,0.522 -0.72953,1.08748 -0.35863,0.3858 -0.56306,0.64798 -0.52872,0.68036 0.069,0.0653 1.28209,1.47501 1.55745,1.8102 l 0.19946,0.24318 0.46177,-0.3593 c 1.47265,-1.15227 3.54296,-1.14018 4.99067,0.0274 1.44617,1.1662 1.90978,3.09801 1.15033,4.79531 l 0,0.004 c -0.20475,0.45758 -0.8249,1.26434 -1.16126,1.511 -0.68517,0.50248 -1.68177,0.84964 -2.4564,0.85522 -1.84858,0.0141 -3.49962,-1.26587 -3.94008,-3.05478 l -0.13798,-0.55603 -0.4604,-0.003 c -0.25353,-7e-4 -0.48161,-0.0218 -0.50686,-0.0452 -0.12218,-0.11337 -0.0429,-0.27919 0.23089,-0.48227 0.56742,-0.42081 0.77081,-1.13887 0.48637,-1.71593 -0.47142,-0.95631 -1.9651,-1.35645 -3.17912,-0.85249 -0.35317,0.14661 -0.48377,0.24432 -0.73364,0.55057 -0.52809,0.64718 -0.4641,1.3135 0.18444,1.93315 0.46688,0.44608 0.43107,0.56903 -0.16804,0.59156 l -0.49047,0.0191 -0.17487,0.60112 c -0.37521,1.29281 -1.162884,2.15418 -2.437275,2.66269 -1.01841,0.40634 -2.263421,0.32967 -3.321191,-0.20356 -0.574934,-0.28978 -1.410217,-1.13987 -1.700901,-1.73095 -0.639031,-1.29959 -0.56022,-2.73703 0.21859,-3.99747 0.992083,-1.60537 3.116826,-2.27361 4.911433,-1.54378 0.262846,0.10687 0.642091,0.34351 0.938572,0.58472 l 0.497284,0.4044 0.539648,-0.65303 c 0.29686,-0.35937 0.7195,-0.84833 0.93994,-1.08613 l 0.40165,-0.43308 -0.35383,-0.26503 c -0.68226,-0.51213 -1.18533,-1.57026 -1.16128,-2.44274 0.006,-0.22304 0.0841,-0.64171 0.17352,-0.93037 0.14744,-0.47547 0.20969,-0.57495 0.65713,-1.0547 0.6378,-0.68391 1.10736,-0.91824 1.96731,-0.98365 z"
       id="path5026"
       inkscape:connector-curvature="0" />
    <path
       style="fill:#000000"
       d="m 105.88086,1041.3954 -0.006,0.7422 0.006,0 0,-0.7422 z"
       id="path4994" />
  </g>
</svg>
