<?xml version="1.0" encoding="UTF-8" standalone="no"?>
<!-- Created with Inkscape (http://www.inkscape.org/) -->

<svg
   xmlns:dc="http://purl.org/dc/elements/1.1/"
   xmlns:cc="http://creativecommons.org/ns#"
   xmlns:rdf="http://www.w3.org/1999/02/22-rdf-syntax-ns#"
   xmlns:svg="http://www.w3.org/2000/svg"
   xmlns="http://www.w3.org/2000/svg"
   xmlns:xlink="http://www.w3.org/1999/xlink"
   xmlns:sodipodi="http://sodipodi.sourceforge.net/DTD/sodipodi-0.dtd"
   xmlns:inkscape="http://www.inkscape.org/namespaces/inkscape"
   width="1280"
   height="160"
   viewBox="0 0 1280 160"
   id="svg2"
   version="1.1"
   inkscape:version="0.92.2 5c3e80d, 2017-08-06"
   sodipodi:docname="ornament.svg">
  <defs
     id="defs4">
    <linearGradient
       inkscape:collect="always"
       id="linearGradient4864">
      <stop
         style="stop-color:#ffffff;stop-opacity:1;"
         offset="0"
         id="stop4866" />
      <stop
         style="stop-color:#ffffff;stop-opacity:0;"
         offset="1"
         id="stop4868" />
    </linearGradient>
    <linearGradient
       inkscape:collect="always"
       xlink:href="#linearGradient4864"
       id="linearGradient5318"
       gradientUnits="userSpaceOnUse"
       gradientTransform="translate(17.433962,3.6345031)"
       x1="69.723587"
       y1="985.51831"
       x2="65.058472"
       y2="986.46173" />
    <linearGradient
       inkscape:collect="always"
       xlink:href="#linearGradient4864"
       id="linearGradient5360"
       gradientUnits="userSpaceOnUse"
       gradientTransform="translate(17.433962,3.6345031)"
       x1="69.723587"
       y1="985.51831"
       x2="65.058472"
       y2="986.46173" />
  </defs>
  <sodipodi:namedview
     id="base"
     pagecolor="#ffffff"
     bordercolor="#666666"
     borderopacity="1.0"
     inkscape:pageopacity="0.0"
     inkscape:pageshadow="2"
     inkscape:zoom="1.034375"
     inkscape:cx="640"
     inkscape:cy="79.999997"
     inkscape:document-units="px"
     inkscape:current-layer="layer1"
     showgrid="false"
     units="px"
     inkscape:window-width="1920"
     inkscape:window-height="1011"
     inkscape:window-x="0"
     inkscape:window-y="27"
     inkscape:window-maximized="1"
     showguides="true"
     inkscape:guide-bbox="true" />
  <metadata
     id="metadata7">
    <rdf:RDF>
      <cc:Work
         rdf:about="">
        <dc:format>image/svg+xml</dc:format>
        <dc:type
           rdf:resource="http://purl.org/dc/dcmitype/StillImage" />
        <dc:title></dc:title>
      </cc:Work>
    </rdf:RDF>
  </metadata>
  <g
     inkscape:label="Layer 1"
     inkscape:groupmode="layer"
     id="layer1"
     transform="translate(0,-892.36218)">
    <g
       id="g4789"
       transform="matrix(4.1864012,0,0,1.9755051,434.54363,-1032.7219)"
       style="opacity:0.79">
      <path
         d="m 105.81657,1015.9551 c 0.14096,0.023 0.17465,0.3354 0.19727,1.0742 0.0515,1.6806 0.4563,2.7912 1.14844,3.1445 0.13925,0.071 0.56624,0.1289 0.94726,0.1289 0.95035,0 1.22757,0.2581 1.72266,1.6094 0.2019,0.5511 0.42539,1.3314 0.49609,1.7324 0.16665,0.9454 0.16773,2.5557 0.004,3.7051 -0.1354,0.9499 -0.55168,2.7573 -0.68945,2.9902 -0.19432,0.3284 -0.4426,1.6574 -0.4961,2.6602 -0.0321,0.6015 -0.11434,1.2415 -0.18164,1.4219 -0.14706,0.3942 -0.57971,0.8542 -1.05469,1.1191 l 0,0 c -0.42574,0.2379 -0.63303,0.2471 -0.76562,0.031 -0.20752,-0.3378 -0.54883,-1.3165 -0.54883,-1.5703 0,-0.4694 -0.28782,-1.3173 -0.43359,-1.2793 -0.14751,0.039 -0.4777,1.9017 -0.4043,2.2812 0.10838,0.5599 -0.52382,0.7555 -1.46289,0.4532 -0.5974,-0.1922 -0.94902,-0.6107 -1.29883,-1.5469 -0.36836,-0.9859 -0.53906,-1.8823 -0.53906,-2.8399 0,-0.9092 0.11447,-1.4134 0.47656,-2.1035 0.25096,-0.4784 0.26465,-0.5629 0.21875,-1.3359 -0.027,-0.4541 -0.17532,-1.3456 -0.33008,-1.9805 -0.41262,-1.6928 -0.51266,-2.6143 -0.375,-3.4453 0.25843,-1.5603 1.04822,-2.9961 1.65235,-2.9961 0.46406,0 0.54424,-0.1426 0.61914,-1.0898 0.0787,-0.9956 0.27229,-1.5241 0.70703,-1.9199 0.18223,-0.1659 0.30605,-0.256 0.39062,-0.2422 z m 0.0469,-0.2344 c -0.23877,0.058 -0.59736,0.3423 -0.83203,0.6933 -0.30949,0.4628 -0.36115,0.6635 -0.48828,1.879 -0.0609,0.5821 -0.0744,0.6053 -0.41602,0.7011 -1.25423,0.3521 -2.15359,3.0263 -1.77148,5.2657 0.15499,0.9084 0.18333,4.8435 0.041,5.582 -0.15276,0.7924 -0.14713,1.5225 0.0176,2.4668 0.14438,0.8274 0.71781,2.4487 0.92578,2.6191 0.0704,0.057 0.21217,0.2173 0.31445,0.3555 0.21251,0.2871 1.29467,0.5913 1.72657,0.4844 0.40645,-0.1007 0.49414,-0.2529 0.49414,-0.8536 0,-0.472 0.0695,-0.9668 0.24219,-1.7324 0.0618,-0.2739 0.29882,0.2063 0.29882,0.6055 0,0.4663 0.5484,1.8608 0.79688,2.0254 0.25728,0.1704 0.51167,0.068 1.19336,-0.4805 0.66674,-0.5366 0.88672,-1.1387 0.88672,-2.4336 0,-0.857 0.0406,-1.0891 0.37109,-2.1308 0.65998,-2.0803 0.97271,-3.7839 0.97656,-5.3184 0.004,-1.6025 -0.59536,-3.8863 -1.25195,-4.7734 -0.3486,-0.4711 -0.65171,-0.6152 -1.29883,-0.6172 -0.43431,0 -1.25817,-0.4854 -1.49609,-0.8789 -0.2492,-0.4122 -0.44922,-1.5197 -0.44922,-2.4922 0,-0.4761 -0.0414,-0.9013 -0.0918,-0.9434 -0.0441,-0.037 -0.10986,-0.043 -0.18945,-0.023 z m 3.13477,-0.2578 c 0.0422,-0.019 0.0994,-0.019 0.17187,0 0.24151,0.063 0.42992,0.6784 0.41992,1.3769 -0.005,0.3342 -0.0456,0.7394 -0.0918,0.9004 -0.0749,0.2608 -0.0951,0.2186 -0.18555,-0.3906 -0.0558,-0.3757 -0.18401,-0.9145 -0.28516,-1.1973 -0.14481,-0.4049 -0.1558,-0.6328 -0.0293,-0.6894 z m 0.0684,-0.2632 c -0.3539,0 -0.40847,0.3259 -0.16992,1.0215 0.11647,0.3397 0.23599,0.8629 0.26563,1.1641 0.0296,0.3012 0.0704,0.6157 0.0898,0.6992 0.0513,0.2199 0.28225,0.1866 0.34961,-0.051 0.0316,-0.1115 0.0819,-0.5128 0.11133,-0.8926 0.0854,-1.1043 -0.19382,-1.9414 -0.64649,-1.9414 z m -5.48636,-11.6464 c 0.0297,-0.041 0.0469,0 0.0469,0.1386 0,0.087 -0.0593,0.2648 -0.13281,0.3946 -0.1222,0.2158 -0.12631,0.2032 -0.0371,-0.1582 0.0509,-0.2062 0.0933,-0.3337 0.12305,-0.375 z m 0.12304,-0.75 c -0.18487,0 -0.47428,0.7193 -0.58203,1.4472 -0.0505,0.3413 -0.0352,0.375 0.17383,0.375 0.14905,0 0.29043,-0.1174 0.40234,-0.3339 0.19457,-0.3767 0.31085,-1.0286 0.23243,-1.3047 -0.0287,-0.1009 -0.13016,-0.1836 -0.22657,-0.1836 z m 3.48047,-1.2964 c 0.14213,0.011 0.27232,0.035 0.38477,0.076 0.46742,0.1702 0.76991,0.5723 1.54687,2.0527 0.8633,1.6448 1.16525,2.4958 1.16602,3.2832 10e-4,1.3089 -0.41829,2.8624 -1.16406,4.3027 -0.53397,1.0314 -1.14032,1.9962 -1.19922,1.9102 -0.0228,-0.033 0.0151,-0.4967 0.0859,-1.0313 0.15619,-1.179 0.0791,-2.2547 -0.19531,-2.7089 -0.0114,-0.019 -0.16311,0.1603 -0.33789,0.3964 -0.40983,0.5536 -0.75098,0.5695 -1.18164,0.059 l -0.31055,-0.3691 -0.19726,0.2793 c -0.10882,0.1529 -0.30004,0.5708 -0.42383,0.9297 -0.18555,0.5367 -0.21603,0.7757 -0.17773,1.3457 0.0256,0.3812 0.13431,0.9272 0.24218,1.2129 0.10788,0.2857 0.18167,0.5385 0.16407,0.5625 -0.0817,0.1104 -1.14669,-0.7409 -1.49805,-1.1973 -0.57628,-0.7484 -0.74302,-1.3388 -0.74219,-2.6133 10e-4,-1.3597 0.21783,-2.3054 0.80859,-3.5234 0.60709,-1.2518 0.88382,-2.137 1.07032,-3.4219 l 0.15625,-1.0722 0.40429,-0.1934 c 0.4429,-0.2117 0.97207,-0.3113 1.39844,-0.2793 z m -0.99804,-1.1582 c -0.40215,0.038 -0.78305,0.2363 -1.09766,0.5996 l -0.29297,0.3359 0.14453,0.5469 c 0.27655,1.052 -0.12049,2.8084 -1.11719,4.9473 -0.41608,0.893 -0.64523,2.0164 -0.64453,3.1582 7.6e-4,1.4784 0.31181,2.3749 1.09375,3.1504 0.75065,0.7445 1.60352,1.2287 1.60352,0.9101 0,-0.059 -0.12508,-0.4685 -0.27735,-0.9082 -0.18209,-0.5257 -0.25467,-0.8871 -0.21484,-1.0566 l 0.0606,-0.2578 0.13086,0.2519 c 0.0717,0.1384 0.31083,0.394 0.53125,0.5684 0.32092,0.2542 0.48426,0.3083 0.82617,0.2676 0.23485,-0.028 0.50175,-0.096 0.5918,-0.1504 0.14638,-0.088 0.1566,-0.052 0.10351,0.3301 -0.0915,0.6588 0.0946,0.6829 0.55664,0.074 0.9532,-1.2562 1.80324,-3.1448 2.09375,-4.6543 0.2587,-1.3443 0.24183,-2.0329 -0.0703,-2.9239 -0.34933,-0.9973 -1.55845,-3.3981 -2.06055,-4.0937 -0.56443,-0.782 -1.29069,-1.1597 -1.96093,-1.0957 z m -0.56055,-6.48438 c 0.024,-0.0113 0.0494,-0.009 0.0762,0.0137 0.046,0.0385 0.084,0.14979 0.084,0.24609 0,0.20052 -0.14191,0.23353 -0.2246,0.0527 -0.055,-0.12024 -0.007,-0.27866 0.0645,-0.3125 z m 0.0273,-1.63086 c 0.13995,0 0.3125,0.36457 0.3125,0.66016 0,0.27047 -0.11678,0.23501 -0.35351,-0.10547 -0.20796,-0.29914 -0.18899,-0.55469 0.041,-0.55469 z m -0.043,-0.22656 c -0.0841,0.0222 -0.17785,0.0975 -0.30664,0.23438 -0.43222,0.45935 -0.46153,0.68047 -0.15234,1.15625 0.15142,0.23299 0.27539,0.51875 0.27539,0.63672 0,0.25517 0.17917,0.52638 0.31055,0.46875 0.0513,-0.0225 0.13412,-0.25522 0.18359,-0.51758 0.0495,-0.26235 0.1221,-0.54184 0.16016,-0.6211 0.0932,-0.19409 -0.0718,-1.14193 -0.22071,-1.26953 -0.0919,-0.0787 -0.16588,-0.11004 -0.25,-0.0879 z"
         style="fill:#d04f00;fill-opacity:1;stroke:none"
         id="path4624"
         inkscape:connector-curvature="0" />
      <path
         id="path4164"
         d="m 105.05538,1034.4193 c 0.0989,-0.1337 0.17988,-0.3546 0.17988,-0.4909 0,-0.3176 0.28402,-1.0701 0.58827,-1.5586 0.30566,-0.4908 0.59746,-0.4967 0.85009,-0.017 0.28868,0.5477 0.32853,1.1075 0.0988,1.3883 -0.38758,0.4739 -0.12502,1.0109 0.30718,0.6283 0.2074,-0.1836 0.24094,-0.1835 0.44898,0 0.20548,0.1819 0.24352,0.1825 0.44164,0.01 0.11924,-0.1056 0.32393,-0.4979 0.45488,-0.8718 0.31997,-0.9139 0.31978,-1.6547 -7.8e-4,-2.5698 l -0.24551,-0.7012 0.39302,-1.583 c 0.47526,-1.9144 0.55939,-3.088 0.29309,-4.0885 -0.21587,-0.811 -0.71812,-1.5094 -1.21898,-1.6947 -1.08252,-0.4008 -1.70919,-1.011 -1.82936,-1.7813 -0.13976,-0.8959 -0.42261,-0.9771 -0.94489,-0.2715 -0.58131,0.7854 -0.84624,1.6752 -0.84872,2.8505 -8.3e-4,0.5347 0.0472,1.321 0.10728,1.7474 0.0742,0.5263 0.0805,0.848 0.0198,1.0015 -0.16579,0.4185 -0.19939,2.0642 -0.0549,2.6896 l 0.1335,0.5781 -0.34297,0.5607 c -0.57201,0.9352 -0.61741,1.6782 -0.17756,2.9058 0.24019,0.6704 0.80763,1.5137 1.01849,1.5137 0.0819,0 0.22976,-0.1094 0.3287,-0.243 z"
         style="fill:#ffffff;stroke:#ffffff"
         inkscape:connector-curvature="0" />
      <path
         d="m 105.79795,1015.9681 c -0.0846,-0.014 -0.20644,0.076 -0.38867,0.2422 -0.43474,0.3958 -0.63026,0.9243 -0.70899,1.9199 -0.0749,0.9472 -0.15312,1.0869 -0.61718,1.0899 -0.60413,0 -1.39392,1.4358 -1.65235,2.996 -0.13766,0.8311 -0.0376,1.7525 0.375,3.4454 0.15476,0.6349 0.30309,1.5263 0.33008,1.9804 0.0459,0.7729 0.0322,0.8596 -0.21875,1.3379 -0.36209,0.6901 -0.47656,1.1924 -0.47656,2.1016 0,0.9576 0.1707,1.8539 0.53906,2.8398 0.34981,0.9362 0.70143,1.3566 1.29883,1.5489 0.93907,0.3022 1.57127,0.1048 1.46289,-0.4551 -0.0734,-0.3795 0.25679,-2.2404 0.4043,-2.2793 0.14577,-0.038 0.43164,0.8079 0.43164,1.2773 0,0.01 0.0146,0.048 0.0156,0.061 0.0245,-0.108 0.0802,-0.2273 0.17383,-0.3418 0.22973,-0.2808 0.18907,-0.8389 -0.0996,-1.3867 -0.25263,-0.4793 -0.54395,-0.4732 -0.84961,0.018 -0.30425,0.4886 -0.58789,1.241 -0.58789,1.5586 0,0.1363 -0.0827,0.3565 -0.18164,0.4902 -0.0989,0.1337 -0.24623,0.2422 -0.32813,0.2422 -0.21086,0 -0.77738,-0.8433 -1.01757,-1.5137 -0.43985,-1.2276 -0.39428,-1.9691 0.17773,-2.9043 l 0.3418,-0.5605 -0.13281,-0.5781 c -0.14449,-0.6255 -0.11111,-2.2729 0.0547,-2.6914 0.0607,-0.1535 0.0547,-0.4738 -0.0195,-1 -0.0601,-0.4264 -0.10825,-1.2134 -0.10742,-1.7481 0.002,-1.1753 0.26635,-2.0642 0.84766,-2.8496 0.52228,-0.7056 0.80555,-0.6244 0.94531,0.2715 0.12017,0.7703 0.74756,1.3805 1.83008,1.7812 0.50086,0.1854 1.00288,0.8824 1.21875,1.6934 0.2663,1.0005 0.18229,2.1755 -0.29297,4.0899 l -0.39258,1.582 0.24414,0.7012 c 0.32056,0.915 0.32192,1.6564 0.002,2.5703 -0.13095,0.3739 -0.33584,0.7655 -0.45507,0.8711 -0.19813,0.1744 -0.23593,0.174 -0.44141,-0.01 -0.20804,-0.1836 -0.24182,-0.1836 -0.44922,0 -0.15611,0.1382 -0.2897,0.1531 -0.37891,0.098 0.11335,0.3963 0.28739,0.8869 0.4336,1.125 0.13259,0.2158 0.33988,0.2084 0.76562,-0.029 0.47498,-0.265 0.90763,-0.725 1.05469,-1.1192 0.0673,-0.1804 0.14954,-0.8203 0.18164,-1.4218 0.0535,-1.0028 0.29982,-2.3318 0.49414,-2.6602 0.13777,-0.2329 0.55601,-2.0403 0.69141,-2.9902 0.16382,-1.1494 0.16079,-2.7597 -0.006,-3.7051 -0.0707,-0.401 -0.2942,-1.1794 -0.4961,-1.7305 -0.49509,-1.3512 -0.7723,-1.6113 -1.72265,-1.6113 -0.38102,0 -0.80606,-0.058 -0.94531,-0.1289 -0.69214,-0.3533 -1.09695,-1.4639 -1.14844,-3.1445 -0.0226,-0.7388 -0.0583,-1.0513 -0.19922,-1.0743 z m 3.18359,-0.4922 c -0.12649,0.057 -0.11746,0.2845 0.0273,0.6895 0.10115,0.2827 0.22931,0.8215 0.28515,1.1972 0.0905,0.6093 0.11063,0.6515 0.18555,0.3907 0.0462,-0.161 0.0892,-0.5663 0.0937,-0.9004 0.01,-0.6985 -0.17841,-1.3141 -0.41992,-1.377 -0.0725,-0.019 -0.12971,-0.019 -0.17188,0 z m -5.41797,-11.9082 c -0.0297,0.041 -0.0721,0.1689 -0.12304,0.375 -0.0892,0.3614 -0.0871,0.3741 0.0352,0.1582 0.0735,-0.1297 0.13477,-0.3071 0.13477,-0.3945 0,-0.1355 -0.0171,-0.18 -0.0469,-0.1387 z m 3.60157,-2.0469 c -0.42637,-0.032 -0.95359,0.068 -1.39649,0.2793 l -0.40625,0.1953 -0.15429,1.0723 c -0.1865,1.2849 -0.46323,2.1682 -1.07032,3.4199 -0.59078,1.2181 -0.80936,2.1638 -0.81054,3.5235 -8.3e-4,1.2745 0.16786,1.8648 0.74414,2.6133 0.35136,0.4563 1.41634,1.3077 1.49804,1.1972 0.0176,-0.024 -0.0562,-0.2768 -0.16406,-0.5625 -0.10787,-0.2857 -0.21857,-0.8317 -0.24414,-1.2129 -0.0383,-0.57 -0.006,-0.8089 0.17969,-1.3457 0.12379,-0.3588 0.31305,-0.7768 0.42187,-0.9297 l 0.19922,-0.2793 0.31055,0.3692 c 0.43066,0.5109 0.76986,0.4947 1.17969,-0.059 0.17478,-0.2361 0.32841,-0.4135 0.33984,-0.3946 0.27436,0.4542 0.3515,1.5281 0.19531,2.7071 -0.0708,0.5346 -0.11066,0.9999 -0.0879,1.0332 0.0589,0.086 0.66525,-0.8808 1.19922,-1.9121 0.74577,-1.4404 1.16717,-2.9939 1.16602,-4.3028 -7.7e-4,-0.7873 -0.30272,-1.6383 -1.16602,-3.2832 -0.77696,-1.4804 -1.07945,-1.8825 -1.54687,-2.0527 -0.11245,-0.041 -0.2446,-0.066 -0.38672,-0.076 z m -1.5586,-7.64274 c -0.0719,0.0338 -0.11751,0.19226 -0.0625,0.3125 0.0827,0.1808 0.22461,0.14779 0.22461,-0.0527 0,-0.0963 -0.038,-0.20765 -0.084,-0.2461 -0.0267,-0.0223 -0.0542,-0.0249 -0.0781,-0.0137 z m 0.20899,-1.45703 c 0.0176,0.0257 0.0296,0.0597 0.0449,0.0898 -0.0141,-0.0336 -0.0288,-0.0609 -0.0449,-0.0898 z m -0.17969,-0.17383 c -0.23,0 -0.24898,0.25555 -0.041,0.55469 0.23673,0.34048 0.35352,0.37594 0.35352,0.10547 0,-0.0101 -0.004,-0.021 -0.004,-0.0312 -0.009,0.13838 -0.0538,0.10198 -0.25781,-0.19141 -0.1485,-0.21353 -0.1728,-0.31521 -0.0918,-0.38281 0.0592,-0.0494 0.14729,0.012 0.22071,0.11914 -0.0558,-0.0999 -0.1197,-0.17383 -0.17969,-0.17383 z m 0.31891,0.57768 c 0,-0.27167 -0.23447,-0.61388 -0.35287,-0.51502 -0.081,0.0676 -0.0565,0.16957 0.092,0.3831 0.23315,0.3353 0.2609,0.34933 0.2609,0.13192 z"
         style="fill:#f8f106;fill-opacity:1;stroke:#f8f106;stroke-width:0.5;stroke-miterlimit:4;stroke-dasharray:none;stroke-opacity:1"
         id="path4540"
         inkscape:connector-curvature="0" />
    </g>
    <g
       id="g4779"
       transform="matrix(4.1864012,0,0,1.9755051,241.02939,-1032.7219)"
       style="opacity:0.79">
      <path
         d="m 71.94745,1015.2207 c 0.0371,0.023 0.219413,0.1711 0.40625,0.3281 0.2565,0.2155 0.318083,0.3242 0.246094,0.4414 -0.133839,0.2175 -0.397914,0.29 -0.572266,0.1582 -0.14553,-0.11 -0.223919,-1.0187 -0.08008,-0.9277 z m 0.01367,-0.4914 c -0.05491,-0.01 -0.110695,0.075 -0.177735,0.2441 -0.11544,0.2914 -0.05678,1.0086 0.103516,1.2696 0.15103,0.2459 0.471554,0.2122 0.746094,-0.08 0.31378,-0.3335 0.298018,-0.4554 -0.08203,-0.6699 -0.17481,-0.099 -0.362238,-0.3132 -0.417968,-0.4785 -0.06216,-0.1843 -0.116962,-0.2787 -0.171875,-0.2852 z m 5.372999,-2.5449 c 0.09421,-0.01 0.258916,0.1421 0.541016,0.4453 1.853106,1.9909 2.121098,3.4792 1.164063,6.4629 -0.466498,1.4544 -0.556963,2.0432 -0.427735,2.8125 0.160016,0.9524 0.539098,1.8 0.982422,2.2012 0.210872,0.1909 0.441682,0.5013 0.513672,0.6894 0.394299,1.0302 0.570116,4.0172 0.330078,5.5938 -0.293388,1.927 -1.106019,4.0053 -1.878906,4.8027 -0.421255,0.4346 -0.827636,0.5448 -0.990234,0.2695 -0.175353,-0.2969 -0.370142,-0.9045 -0.605469,-1.8867 -0.131199,-0.5476 -0.277992,-1.0284 -0.326172,-1.0684 -0.213842,-0.1786 -0.37923,0.2589 -0.703125,1.8633 -0.123227,0.6103 -0.389979,0.8858 -0.9375,0.9688 -0.61319,0.093 -1.208064,-0.4634 -1.863281,-1.7442 -0.795826,-1.5557 -1.025532,-2.5231 -1.019532,-4.2988 0.0056,-1.6505 0.141509,-2.1965 1.029297,-4.1484 1.008698,-2.2177 1.114829,-2.9014 0.628906,-4.0489 -0.380774,-0.8989 -0.517738,-2.0884 -0.378906,-3.2949 0.134096,-1.1654 0.487091,-2.2548 0.884766,-2.7265 0.341782,-0.4055 0.442636,-0.4443 1.361328,-0.5313 1.036765,-0.098 1.578125,-0.7349 1.578125,-1.8594 0,-0.3275 0.02298,-0.4938 0.117187,-0.5019 z m -0.154296,-0.3731 c -0.121613,0.014 -0.145032,0.2486 -0.138672,0.7129 0.009,0.6642 -0.01451,0.759 -0.279297,1.1172 -0.21689,0.2934 -0.369522,0.3926 -0.607422,0.3926 -0.17464,0 -0.318359,0.035 -0.318359,0.08 0,0.044 -0.248305,0.1111 -0.552735,0.1484 -0.76316,0.094 -1.196364,0.5182 -1.583984,1.5508 -0.42853,1.1415 -0.608886,2.5746 -0.472656,3.7558 0.0581,0.504 0.146958,1.0834 0.199218,1.2872 0.0743,0.2896 0.0552,0.6217 -0.0918,1.5195 -0.103399,0.6317 -0.214786,1.4217 -0.248046,1.7558 -0.0332,0.3342 -0.212265,1.0183 -0.396485,1.5196 -0.57111,1.5538 -0.746977,2.4447 -0.742187,3.7597 0.005,1.3491 0.189604,2.201 0.771484,3.5743 0.45397,1.0715 1.331155,2.2925 1.796875,2.5 0.27805,0.1239 0.417803,0.121 0.751953,-0.012 0.47437,-0.1887 0.709637,-0.5354 0.841797,-1.2421 0.13155,-0.7034 0.368669,-1.415 0.449219,-1.3477 0.0373,0.031 0.215001,0.5611 0.394531,1.1797 0.35005,1.2063 0.451963,1.4358 0.720703,1.6367 0.22139,0.1654 0.636787,0.011 0.941406,-0.3555 l 0,0 c 0.6699,-0.8014 1.110238,-1.6791 1.523438,-3.0332 0.54813,-1.7963 0.696416,-3.9769 0.410156,-6.041 -0.18041,-1.3008 -0.399095,-1.9368 -0.791015,-2.2969 -0.38768,-0.3562 -0.448707,-0.5797 -0.785157,-2.8887 -0.10597,-0.7274 -0.101717,-0.7627 0.257813,-2.0664 0.67496,-2.4475 0.689732,-3.3225 0.07617,-4.582 -0.4037,-0.8287 -0.693925,-1.2458 -1.396485,-2.0078 -0.38875,-0.4217 -0.608856,-0.6288 -0.730468,-0.6153 z m -1.298818,-5.7268 c 0.181031,0 0.316406,0.4858 0.316406,1.1406 0,0.395 -0.05302,0.585 -0.22461,0.8028 -0.261017,0.3313 -0.28905,0.7725 -0.09961,1.623 0.123673,0.5552 0.122224,0.5766 -0.111328,0.9141 -0.131429,0.19 -0.320992,0.528 -0.419922,0.75 -0.09893,0.2219 -0.226463,0.4223 -0.283203,0.4473 -0.181485,0.079 -0.470955,-0.633 -0.804688,-1.9805 -0.384955,-1.5543 -0.352076,-1.9355 0.230469,-2.6465 0.377109,-0.4603 1.161938,-1.0508 1.396485,-1.0508 z m 1.49414,-9.59912 c 0.147155,0 0.169922,0.0921 0.169922,0.66211 0,0.43514 0.1225,1.18069 0.355469,2.17187 0.462119,1.96634 0.669473,3.47754 0.595703,4.32624 -0.06533,0.7515 -0.330951,1.6397 -0.611328,2.0429 -0.211099,0.3036 -0.416483,0.3573 -0.470703,0.1231 -0.34032,-1.4698 -0.321369,-1.4277 -0.587891,-1.4277 -0.240724,0 -0.555317,-0.3675 -0.654297,-0.7657 -0.02702,-0.1082 -0.100257,-0.099 -0.287109,0.035 -0.24144,0.1738 -0.259541,0.166 -0.496094,-0.2168 -0.443348,-0.7175 -0.555639,-1.6723 -0.326172,-2.7676 0.06905,-0.3296 0.150068,-0.7446 0.179688,-0.9219 0.02963,-0.1774 0.21057,-0.59017 0.402343,-0.91797 0.191768,-0.3278 0.375964,-0.70841 0.408203,-0.84571 0.07836,-0.33352 1.106215,-1.49804 1.322266,-1.49804 z m 0.04883,-0.25974 c -0.07667,0.0153 -0.169808,0.0594 -0.285156,0.13086 -0.35646,0.22094 -1.049281,1.09386 -1.244141,1.56836 -0.0566,0.13783 -0.254323,0.54084 -0.439453,0.89453 -0.37774,0.7216 -0.598132,1.61721 -0.669922,2.72851 -0.0409,0.6332 -0.01119,0.8548 0.183594,1.4297 0.12682,0.3743 0.317158,1.1016 0.423828,1.6152 0.10667,0.5136 0.211855,0.9989 0.234375,1.0782 0.0225,0.08 -0.192868,0.3409 -0.480469,0.582 -1.35844,1.1389 -1.537463,1.7789 -1.027343,3.6875 0.42908,1.6054 0.632578,2.0093 0.980469,1.9512 0.153509,-0.026 0.288856,-0.2118 0.466796,-0.6426 0.15717,-0.3805 0.322877,-0.6222 0.441407,-0.6465 0.2249,-0.047 0.233897,-0.1865 0.05469,-0.873 -0.21005,-0.8043 -0.180032,-1.3916 0.08594,-1.627 0.12231,-0.1083 0.256695,-0.3686 0.296875,-0.5781 0.0614,-0.32 0.122022,-0.3871 0.382812,-0.4258 0.20808,-0.031 0.424267,-0.196 0.654297,-0.5 0.18874,-0.2495 0.424721,-0.5636 0.525391,-0.6973 0.29992,-0.3982 0.513477,-1.076 0.617187,-1.9531 0.1498,-1.267 0.0039,-2.5305 -0.591797,-5.06055 -0.17582,-0.74748 -0.308594,-1.55935 -0.308593,-1.90039 0,-0.58661 -0.07076,-0.80765 -0.300782,-0.76172 z"
         style="fill:#d04f00;fill-opacity:1;stroke:none"
         id="path4630"
         inkscape:connector-curvature="0" />
      <path
         id="path4430"
         d="m 75.708842,1032.5675 c 0.46828,-1.3131 0.6944,-1.3274 1.58172,-0.1 0.71834,0.9939 0.98381,1.1026 1.13042,0.463 0.33047,-1.4419 0.42078,-4.4837 0.16357,-5.5093 -0.15204,-0.6063 -0.54222,-1.3029 -1.28926,-2.302 -0.61099,-0.817 -0.69531,-1.7687 -0.33875,-3.8234 0.0754,-0.4344 0.16024,-1.1033 0.18858,-1.4863 0.0483,-0.653 0.0339,-0.7237 -0.22899,-1.1283 -0.33899,-0.5216 -0.34658,-0.7646 -0.0564,-1.8061 0.12324,-0.4423 0.20421,-0.8042 0.17992,-0.8042 -0.0243,0 -0.2364,0.1319 -0.47139,0.2933 -0.23498,0.1613 -0.58912,0.3601 -0.78698,0.4418 -0.79717,0.3289 -1.30407,1.2058 -1.30407,2.2559 0,0.6315 0.0882,0.8754 0.59732,1.6523 0.37072,0.5658 0.75171,1.5687 0.75171,1.9788 0,0.5965 -0.27491,1.1918 -1.06819,2.3129 -0.51097,0.7221 -0.89927,1.4014 -1.07912,1.8877 -0.4715,1.2747 -0.37924,2.0355 0.55735,4.5955 0.47581,1.3006 0.87215,2.0152 1.0714,1.9316 0.0626,-0.027 0.24316,-0.4103 0.4012,-0.8535 z"
         style="fill:#ffffff;stroke:#ffffff"
         inkscape:connector-curvature="0" />
      <path
         d="m 77.032321,1016.0641 c 0.0243,0 -0.0564,0.3604 -0.17968,0.8027 -0.29018,1.0415 -0.28235,1.2851 0.0566,1.8067 0.26289,0.4046 0.27681,0.476 0.22851,1.1289 -0.0283,0.3831 -0.1121,1.0519 -0.1875,1.4863 -0.35656,2.0547 -0.2731,3.0053 0.33789,3.8223 0.74704,0.999 1.13703,1.6965 1.28907,2.3027 0.25721,1.0256 0.16836,4.0679 -0.16211,5.5098 -0.1466,0.6396 -0.41251,0.531 -1.13086,-0.4629 -0.88731,-1.2277 -1.11375,-1.2135 -1.58203,0.1 -0.15804,0.4431 -0.33779,0.8269 -0.40039,0.8535 -0.19924,0.084 -0.59647,-0.631 -1.07227,-1.9316 -0.9366,-2.5601 -1.02813,-3.321 -0.55664,-4.5957 0.17986,-0.4864 0.56715,-1.1666 1.07812,-1.8887 0.79328,-1.1211 1.06836,-1.716 1.06836,-2.3125 0,-0.4101 -0.38123,-1.4127 -0.75195,-1.9785 -0.50913,-0.7769 -0.59766,-1.0209 -0.59766,-1.6524 0,-1.05 0.50752,-1.9269 1.30469,-2.2558 0.19786,-0.082 0.55212,-0.2801 0.78711,-0.4414 0.23498,-0.1614 0.4464,-0.293 0.4707,-0.293 z m -5.10156,-0.8304 c -0.14384,-0.09 -0.0654,0.8197 0.0801,0.9297 0.17435,0.1318 0.43647,0.058 0.57031,-0.1601 0.072,-0.1172 0.0123,-0.2259 -0.24414,-0.4414 -0.18684,-0.157 -0.36915,-0.3048 -0.40625,-0.3282 z m 5.38672,-3.0351 c -0.0942,0.01 -0.11914,0.1727 -0.11914,0.5 0,1.1245 -0.54136,1.7617 -1.57813,1.8593 -0.91868,0.087 -1.01759,0.1259 -1.35937,0.5313 -0.39767,0.4718 -0.75263,1.5612 -0.88672,2.7266 -0.13884,1.2065 -0.002,2.396 0.37891,3.2949 0.48592,1.1474 0.37979,1.831 -0.62891,4.0488 -0.88779,1.9518 -1.02177,2.498 -1.02734,4.1484 -0.006,1.7757 0.22176,2.7432 1.01758,4.2989 0.65522,1.2808 1.25204,1.8375 1.86523,1.7441 0.54752,-0.083 0.81428,-0.3584 0.9375,-0.9687 0.3239,-1.6044 0.48733,-2.0419 0.70117,-1.8633 0.0482,0.04 0.19497,0.5207 0.32617,1.0683 0.23532,0.9822 0.43012,1.5899 0.60547,1.8868 0.1626,0.2753 0.57094,0.165 0.99219,-0.2696 0.77289,-0.7973 1.58552,-2.8757 1.87891,-4.8027 0.24004,-1.5766 0.0623,-4.5635 -0.33203,-5.5938 -0.072,-0.1881 -0.30281,-0.4986 -0.51368,-0.6894 -0.44333,-0.4012 -0.82045,-1.2468 -0.98047,-2.1992 -0.12923,-0.7693 -0.0387,-1.3601 0.42774,-2.8145 0.95703,-2.9838 0.68905,-4.4719 -1.16406,-6.4629 -0.2821,-0.3031 -0.44681,-0.4514 -0.54102,-0.4433 z m -1.45312,-6.0996 c -0.23455,0 -1.01938,0.5904 -1.39649,1.0507 -0.58254,0.7111 -0.61543,1.0922 -0.23047,2.6465 0.33373,1.3475 0.62321,2.0595 0.80469,1.9805 0.0567,-0.025 0.18427,-0.2253 0.2832,-0.4473 0.0989,-0.222 0.28654,-0.56 0.41797,-0.75 0.23355,-0.3376 0.23695,-0.3569 0.11328,-0.9121 -0.18945,-0.8505 -0.16336,-1.2918 0.0977,-1.623 0.17159,-0.2179 0.22461,-0.4097 0.22461,-0.8047 0,-0.6548 -0.13342,-1.1406 -0.31445,-1.1406 z m 1.49218,-9.59984 c -0.21605,0 -1.2439,1.1645 -1.32226,1.49804 -0.0322,0.13729 -0.21448,0.51796 -0.40625,0.84576 -0.19177,0.3278 -0.37271,0.7406 -0.40235,0.918 -0.0296,0.1773 -0.11063,0.59234 -0.17968,0.92194 -0.22946,1.0953 -0.11718,2.05 0.32617,2.7676 0.23655,0.3828 0.25465,0.3906 0.49609,0.2168 0.18685,-0.1345 0.26009,-0.1436 0.28711,-0.035 0.099,0.3982 0.41162,0.7656 0.65234,0.7656 0.26653,0 0.24953,-0.042 0.58985,1.4277 0.0542,0.2342 0.2596,0.1806 0.4707,-0.123 0.28037,-0.4033 0.546,-1.2915 0.61133,-2.043 0.0738,-0.8487 -0.13358,-2.36 -0.5957,-4.32624 -0.23296,-0.99129 -0.35547,-1.73679 -0.35547,-2.17193 0,-0.56997 -0.0248,-0.66211 -0.17188,-0.66211 z"
         style="fill:#f8f106;fill-opacity:1;stroke:#f8f106;stroke-width:0.5;stroke-miterlimit:4;stroke-dasharray:none;stroke-opacity:1"
         id="path4538"
         inkscape:connector-curvature="0" />
    </g>
    <g
       id="g4799"
       transform="matrix(4.1864012,0,0,1.9755051,629.02573,-1032.7219)"
       style="opacity:0.79">
      <path
         inkscape:connector-curvature="0"
         d="m 132.35954,1016.3047 c 0.3756,-0.073 0.55045,0.3662 0.4043,1.0996 -0.0649,0.3257 -0.16462,0.5148 -0.31055,0.5898 -0.2428,0.1247 -0.41184,0.7507 -0.33984,1.2598 0.0721,0.5097 -0.0374,0.3705 -0.19336,-0.2481 -0.26927,-1.0677 -0.13183,-2.4325 0.26563,-2.6386 0.0615,-0.032 0.12017,-0.052 0.17382,-0.062 z m 3.49021,-7.841 c 0.12152,-0.051 0.32786,0.3482 0.56054,1.1504 0.36652,1.2637 0.88405,1.7612 1.00196,0.9648 0.0897,-0.6058 0.18615,-0.5223 0.25195,0.2168 0.16438,1.8462 0.43096,2.5913 1.44922,4.043 1.07897,1.5382 1.21593,2.0998 0.8418,3.4922 -0.44805,1.6675 -0.54469,2.276 -0.55469,3.4922 -0.0122,1.4923 0.12611,2.1967 0.78906,4.0097 0.74229,2.0303 0.87099,2.851 0.83399,5.2852 -0.027,1.7751 -0.051,2.0598 -0.22266,2.4902 -0.19979,0.5007 -0.71379,1.2131 -1.10938,1.5391 -0.41441,0.3415 -1.16662,0.6161 -1.47656,0.5371 -0.42282,-0.1071 -0.57735,-0.4019 -0.76172,-1.4473 -0.15882,-0.9007 -0.38424,-1.539 -0.54297,-1.539 -0.12228,0 -0.41911,0.9358 -0.5957,1.8828 -0.0872,0.4679 -0.20361,0.9142 -0.25781,0.9902 -0.17334,0.2441 -1.79646,-0.5838 -2.45899,-1.2539 -0.57169,-0.5783 -0.9853,-2.1487 -1.0664,-4.0488 -0.0702,-1.6421 0.0465,-2.7066 0.45117,-4.1036 0.4977,-1.7183 0.56224,-2.2541 0.36328,-3.0449 -0.14752,-0.5866 -0.15086,-0.6866 -0.0312,-0.9746 0.18474,-0.4453 0.36843,-0.4526 0.54883,-0.021 0.34553,0.8259 0.65688,0.2081 0.58398,-1.1601 -0.0541,-1.0145 -0.19512,-1.5141 -0.67187,-2.3848 -0.50098,-0.9149 -0.64927,-1.5157 -0.64844,-2.6211 0.001,-1.2395 0.21789,-1.8572 1.11328,-3.1738 1.15754,-1.7021 1.49414,-2.5433 1.49414,-3.7324 0,-0.3652 0.0423,-0.5573 0.11524,-0.5879 z m -0.0332,-0.2383 c -0.16069,0.056 -0.26223,0.3952 -0.26562,0.9375 -0.007,1.1608 -0.30715,1.9057 -1.41797,3.5156 -0.79721,1.1554 -1.1874,2.1684 -1.1875,3.0918 l 0,0.6309 -0.23828,-0.168 c -0.53208,-0.3729 -1.10938,0.422 -1.10938,1.5274 0,0.9122 0.53472,2.7851 0.79493,2.7851 0.0815,0 0.10277,-0.073 0.0625,-0.2129 -0.13782,-0.4781 -0.24636,-1.4913 -0.19141,-1.7871 0.0339,-0.1823 0.15434,-0.3664 0.28516,-0.4336 0.12918,-0.066 0.26664,-0.2745 0.32031,-0.4824 0.12059,-0.4674 0.21362,-0.4605 0.33789,0.021 0.0547,0.2118 0.26443,0.6784 0.46484,1.0371 0.42906,0.7678 0.6217,1.5354 0.62305,2.4863 0.002,1.05 -0.0621,1.17 -0.37109,0.7129 -0.21503,-0.3182 -0.28411,-0.3595 -0.43555,-0.25 -0.0992,0.071 -0.24468,0.2973 -0.32227,0.5 -0.12911,0.3374 -0.12791,0.414 0.0117,0.9082 0.20013,0.7081 0.13399,1.5402 -0.21875,2.7266 -0.4979,1.6744 -0.58651,2.2527 -0.58789,3.8867 -8.3e-4,1.243 0.036,1.6843 0.20508,2.4277 0.48334,2.1252 0.8572,2.6199 2.57422,3.4219 0.82859,0.3869 0.90699,0.4037 1.00586,0.1973 l 0,0 c 0.04,-0.083 0.15551,-0.4783 0.25586,-0.8769 0.16276,-0.6466 0.21282,-0.7329 0.47265,-0.8047 0.3323,-0.092 0.34223,-0.08 0.51758,0.7187 0.18749,0.853 0.39171,1.0547 1.0625,1.0508 0.97006,-0.01 1.98798,-0.923 2.45508,-2.2129 0.22428,-0.6194 0.25315,-0.8464 0.28516,-2.2344 0.0516,-2.2397 -0.17344,-3.707 -0.8418,-5.4687 -0.95679,-2.5219 -1.05024,-4.4035 -0.35742,-7.2012 0.17362,-0.7011 0.31359,-1.4007 0.3125,-1.5547 -0.004,-0.5441 -0.34851,-1.3027 -1.07617,-2.3613 -1.07977,-1.5708 -1.30448,-2.2699 -1.43555,-4.4824 -0.108,-1.8231 -0.28561,-2.0217 -0.44531,-0.4981 -0.0478,0.4568 -0.10919,0.858 -0.13477,0.8926 -0.11657,0.1575 -0.33818,-0.1305 -0.51172,-0.6621 -0.40497,-1.2406 -0.56604,-1.6318 -0.71875,-1.7422 -0.0652,-0.047 -0.12612,-0.06 -0.17969,-0.041 z m 2.49415,-6.2581 c 0.0999,-0.043 0.20219,0.092 0.27148,0.461 0.0575,0.3066 0.20991,0.9287 0.33789,1.3828 0.13909,0.4935 0.22861,1.0569 0.22461,1.3984 -0.004,0.3144 -0.0585,0.7894 -0.12109,1.0567 l -0.11329,0.4863 -0.16601,-0.543 c -0.0917,-0.2987 -0.30143,-0.8828 -0.46485,-1.2988 -0.24262,-0.6178 -0.29687,-0.8924 -0.29687,-1.4981 0,-0.805 0.16159,-1.3732 0.32813,-1.4453 z m 0.20117,-0.3784 c -0.25204,0 -0.58338,0.4513 -0.69336,0.9473 -0.19627,0.8851 -0.13515,1.3599 0.34375,2.6738 0.24732,0.6785 0.44922,1.2586 0.44922,1.2891 0,0.031 0.042,0.2 0.0918,0.3769 0.12746,0.453 0.28811,0.3232 0.4668,-0.375 0.19172,-0.7491 0.19867,-2.0242 0.0137,-2.664 -0.0773,-0.2673 -0.22795,-0.8831 -0.33398,-1.3672 -0.13594,-0.6206 -0.23546,-0.8803 -0.33789,-0.8809 z m -1.55469,-3.73631 c 0.11207,-0.007 0.22232,0.008 0.32617,0.0488 0.28736,0.11365 0.29416,0.13149 0.28516,0.7793 -0.0101,0.7407 -0.17222,1.24708 -0.65625,2.04691 -0.31989,0.5286 -0.3244,0.5494 -0.3418,1.7441 -0.01,0.6654 -0.0319,1.2319 -0.0508,1.2579 -0.019,0.026 -0.11987,-0.076 -0.22266,-0.2266 -0.83761,-1.2232 -0.9856,-3.92667 -0.27539,-5.01958 0.24698,-0.38 0.59932,-0.60937 0.93555,-0.63085 z m 0.21875,-2.44139 c -0.0489,-0.005 -0.10353,-0.004 -0.16992,0.004 -0.23719,0.0267 -0.31879,0.0865 -0.29492,0.21875 0.12843,0.71151 -0.24153,1.80549 -0.69727,2.06054 -0.47059,0.26336 -0.59234,0.81119 -0.59375,2.67971 -0.002,1.8961 0.11619,2.406 0.75391,3.2676 0.57858,0.7817 0.65779,0.7042 0.58593,-0.5821 -0.0732,-1.3088 -0.0284,-1.5899 0.35352,-2.1738 0.46677,-0.7136 0.71461,-1.63027 0.75977,-2.82031 0.0434,-1.14442 -0.0649,-1.86912 -0.35157,-2.36133 -0.11567,-0.1987 -0.19914,-0.27792 -0.3457,-0.29297 z"
         style="fill:#d04f00;fill-opacity:1;stroke:none"
         id="path4622" />
      <path
         id="path4418"
         d="m 138.96481,1034.2129 c 0.40295,-0.62 0.88918,-2.0518 0.9561,-2.8154 0.0539,-0.6148 0.032,-0.6984 -0.69428,-2.6403 l -0.74995,-2.0055 0.10737,-0.5423 c 0.15722,-0.7942 0.14965,-0.836 -0.35868,-1.973 -1.03155,-2.3073 -1.15695,-2.9547 -0.9317,-4.8101 0.16953,-1.3964 0.14282,-2.0765 -0.12937,-3.2945 -0.22173,-0.9921 -0.60156,-2.1264 -0.7121,-2.1264 -0.0498,0 -0.13018,0.1777 -0.17848,0.3949 -0.0483,0.2172 -0.1884,0.723 -0.3113,1.124 -0.26627,0.8686 -0.47275,2.4267 -0.38456,2.9015 0.0346,0.1865 0.1564,0.4576 0.27054,0.6023 0.36371,0.461 0.41476,0.7362 0.41476,2.2356 l 0,1.4418 -0.4495,0.7231 c -1.22933,1.9774 -1.82647,3.3112 -2.071,4.6262 -0.22414,1.2052 0.22858,3.6448 0.98786,5.3232 0.17929,0.3963 0.37136,0.741 0.42679,0.766 0.0555,0.025 0.23141,-0.2857 0.39102,-0.6903 0.28933,-0.7334 0.47439,-0.8903 0.69625,-0.5906 0.0832,0.1123 0.1643,0.071 0.36016,-0.1822 0.29575,-0.3829 0.35305,-0.3954 0.5738,-0.1254 0.0908,0.1109 0.25228,0.2613 0.35883,0.3341 0.11786,0.081 0.2579,0.3881 0.35749,0.7855 0.0901,0.3592 0.20991,0.7283 0.26633,0.8202 0.18339,0.2985 0.49794,0.188 0.80362,-0.2824 z"
         style="fill:#ffffff;stroke:#ffffff"
         inkscape:connector-curvature="0" />
      <path
         d="m 132.34092,1016.318 c -0.0537,0.01 -0.11037,0.033 -0.17188,0.064 -0.39746,0.2061 -0.53489,1.569 -0.26562,2.6367 0.156,0.6186 0.26351,0.7597 0.1914,0.25 -0.072,-0.509 0.0971,-1.137 0.33985,-1.2617 0.14593,-0.075 0.24564,-0.2641 0.31054,-0.5898 0.14616,-0.7334 -0.0287,-1.1725 -0.40429,-1.0996 z m 4.10547,-2.3206 c 0.11054,0 0.4892,1.1348 0.71093,2.127 0.27219,1.2179 0.29844,1.8966 0.12891,3.2929 -0.22525,1.8555 -0.0999,2.5032 0.93164,4.8106 0.50833,1.137 0.5166,1.1784 0.35938,1.9726 l -0.10743,0.543 0.75,2.0059 c 0.72628,1.9419 0.74922,2.0257 0.69532,2.6406 -0.0669,0.7635 -0.55408,2.1944 -0.95703,2.8144 -0.30568,0.4704 -0.61935,0.5818 -0.80274,0.2832 -0.0564,-0.092 -0.17748,-0.4611 -0.26758,-0.8203 -0.0996,-0.3974 -0.23956,-0.7045 -0.35742,-0.7851 -0.10655,-0.073 -0.26857,-0.2231 -0.35937,-0.334 -0.22075,-0.27 -0.27652,-0.2579 -0.57227,0.125 -0.19586,0.2536 -0.27813,0.294 -0.36133,0.1816 -0.22186,-0.2997 -0.40598,-0.1435 -0.69531,0.5899 -0.15961,0.4046 -0.33513,0.7163 -0.39062,0.6914 -0.0554,-0.025 -0.24845,-0.3693 -0.42774,-0.7657 -0.75928,-1.6783 -1.21242,-4.1189 -0.98828,-5.3242 0.24453,-1.3149 0.84293,-2.6476 2.07226,-4.625 l 0.44922,-0.7246 0,-1.4414 c 0,-1.4994 -0.0523,-1.7734 -0.41601,-2.2344 -0.11414,-0.1446 -0.23493,-0.417 -0.26953,-0.6035 -0.0882,-0.4748 0.11849,-2.0317 0.38476,-2.9004 0.1229,-0.4009 0.26225,-0.9077 0.31055,-1.125 0.0483,-0.2171 0.12989,-0.3945 0.17969,-0.3945 z m -0.61328,-5.5215 c -0.0729,0.031 -0.11524,0.2228 -0.11524,0.5879 0,1.1892 -0.33855,2.0303 -1.49609,3.7324 -0.89539,1.3166 -1.11016,1.9344 -1.11133,3.1739 -8.3e-4,1.1054 0.14746,1.7062 0.64844,2.621 0.47675,0.8707 0.61781,1.3702 0.67187,2.3848 0.0729,1.3682 -0.23845,1.9861 -0.58398,1.1602 -0.1804,-0.4312 -0.36604,-0.4236 -0.55078,0.021 -0.11961,0.2879 -0.11627,0.3879 0.0312,0.9746 0.19896,0.7908 0.13637,1.3267 -0.36133,3.0449 -0.40468,1.397 -0.52328,2.4614 -0.45313,4.1035 0.0811,1.9001 0.49472,3.4706 1.06641,4.0488 0.66253,0.6701 2.2876,1.498 2.46094,1.254 0.0542,-0.076 0.17058,-0.5224 0.25781,-0.9903 0.17659,-0.947 0.47147,-1.8828 0.59375,-1.8828 0.15873,0 0.38415,0.6384 0.54297,1.5391 0.18437,1.0455 0.3389,1.3401 0.76172,1.4472 0.30994,0.079 1.0641,-0.1936 1.47851,-0.5351 0.39559,-0.3261 0.90763,-1.0403 1.10742,-1.541 0.1717,-0.4304 0.19764,-0.7151 0.22461,-2.4903 0.037,-2.4342 -0.0936,-3.2549 -0.83593,-5.2851 -0.66295,-1.8131 -0.80128,-2.5175 -0.78907,-4.0098 0.01,-1.2162 0.10664,-1.8227 0.55469,-3.4902 0.37413,-1.3925 0.23913,-1.956 -0.83984,-3.4942 -1.01826,-1.4517 -1.28484,-2.1948 -1.44922,-4.041 -0.0658,-0.7391 -0.16424,-0.8226 -0.25391,-0.2168 -0.11791,0.7964 -0.63543,0.2969 -1.00195,-0.9668 -0.23269,-0.8022 -0.43707,-1.2014 -0.55859,-1.1504 z m 2.46093,-6.4941 c -0.16653,0.072 -0.32812,0.6402 -0.32812,1.4453 0,0.6057 0.0542,0.8803 0.29687,1.498 0.16341,0.416 0.37121,1.0001 0.46289,1.2989 l 0.16797,0.5429 0.11328,-0.4863 c 0.0626,-0.2673 0.1173,-0.7422 0.1211,-1.0566 0.004,-0.3416 -0.0875,-0.905 -0.22656,-1.3985 -0.12798,-0.4541 -0.28039,-1.0762 -0.3379,-1.3828 -0.0693,-0.3693 -0.16961,-0.5041 -0.26953,-0.4609 z m -1.35351,-4.11539 c -0.33623,0.0215 -0.68857,0.25082 -0.93555,0.63085 -0.71021,1.0929 -0.56222,3.79644 0.27539,5.01964 0.10279,0.1502 0.20172,0.2523 0.2207,0.2266 0.0189,-0.026 0.0429,-0.5925 0.0527,-1.2578 0.0174,-1.1947 0.0219,-1.2156 0.3418,-1.7442 0.48403,-0.79984 0.64618,-1.30614 0.65625,-2.04694 0.009,-0.64779 0.002,-0.66567 -0.28516,-0.77932 -0.10386,-0.041 -0.2141,-0.056 -0.32617,-0.0488 z"
         style="fill:#f8f106;fill-opacity:1;stroke:#f8f106;stroke-width:0.5;stroke-miterlimit:4;stroke-dasharray:none;stroke-opacity:1"
         id="path4536"
         inkscape:connector-curvature="0" />
    </g>
    <g
       id="g4794"
       transform="matrix(4.1864012,0,0,1.9755051,530.21876,-1032.7219)"
       style="opacity:0.79">
      <path
         d="m 118.81853,1016.3147 c 0.13872,-0.012 0.26843,0.078 0.41015,0.2696 0.26712,0.3609 0.3999,0.9751 0.4668,2.1425 0.0433,0.7495 0.0322,0.8854 -0.0664,0.7598 -0.0656,-0.084 -0.18989,-0.1523 -0.27539,-0.1523 -0.14365,0 -0.45331,0.4239 -0.56054,0.7656 -0.0312,0.1003 -0.0785,0.079 -0.14649,-0.066 -0.17079,-0.3645 -0.50061,-0.2641 -0.66406,0.2012 -0.16953,0.4826 -0.18097,0.8082 -0.0488,1.4511 0.0529,0.2558 0.0798,0.4887 0.0586,0.5176 -0.0949,0.1283 -0.25582,-0.3504 -0.39454,-1.1797 -0.1266,-0.7571 -0.13382,-1.0492 -0.0488,-1.8379 0.12742,-1.1824 0.40369,-2.0591 0.79687,-2.5254 0.18496,-0.2197 0.33394,-0.3337 0.47266,-0.3457 z m 5.71877,-1.5134 c 0.0494,0.015 0.10294,0.1703 0.11914,0.3476 0.0352,0.3826 -0.12869,0.6792 -0.21289,0.3828 -0.0772,-0.2718 -0.0143,-0.7624 0.0937,-0.7304 z m -0.0332,-0.2927 c -0.0465,-0.01 -0.0886,0.019 -0.14453,0.082 -0.13906,0.1559 -0.1808,0.6758 -0.082,1.0235 0.0756,0.2663 0.3696,0.241 0.48242,-0.041 0.14079,-0.3568 0.1109,-0.6773 -0.0859,-0.918 -0.0729,-0.089 -0.12343,-0.1369 -0.16993,-0.1465 z m -3.58012,-3.2578 0.0762,0.4258 c 0.27808,1.5636 0.47278,1.931 1.22461,2.3105 0.69472,0.3507 1.01057,0.6997 1.3164,1.459 0.33208,0.8243 0.41393,2.0136 0.19922,2.9004 -0.26995,1.1152 -0.1278,1.5988 0.34571,1.1797 0.12153,-0.1077 0.28227,-0.1953 0.35937,-0.1953 0.25415,0 0.91683,0.9599 1.20117,1.7402 0.57343,1.5739 0.58327,3.2099 0.0273,4.8672 -0.58763,1.7519 -0.63745,2.4889 -0.37305,5.6055 0.10855,1.2795 0.065,2.0916 -0.14063,2.6289 -0.19402,0.5069 -0.81906,1.1592 -1.25195,1.3066 -0.69891,0.2377 -1.03516,0.099 -1.03515,-0.4297 0,-0.1701 -0.0636,-0.6182 -0.14063,-0.9961 -0.41825,-2.052 -0.76453,-2.1513 -0.89844,-0.2578 -0.0353,0.4992 -0.12156,1.0627 -0.19336,1.2539 -0.12591,0.3354 -0.15067,0.3478 -0.68554,0.3008 -1.05506,-0.092 -1.88488,-0.8979 -2.37891,-2.3106 -0.69233,-1.9798 -1.01419,-5.1356 -0.70117,-6.8613 0.12851,-0.7086 0.23399,-0.9669 0.6914,-1.6855 1.6546,-2.5995 2.05777,-4.2377 1.57227,-6.377 -0.43708,-1.926 -0.17638,-4.7719 0.58984,-6.4394 l 0.19532,-0.4258 z m 0.12695,-0.502 c -0.041,-0.017 -0.0937,0.064 -0.17578,0.1973 -0.2333,0.3798 -0.67101,1.6533 -0.89844,2.6133 -0.10586,0.4468 -0.1927,1.2646 -0.22461,2.1133 -0.0478,1.2693 -0.0626,1.3582 -0.17578,1.0664 -0.1504,-0.3878 -0.38286,-0.5664 -0.73242,-0.5664 -1.02258,0 -1.81183,3.0651 -1.33789,5.1972 0.1636,0.736 0.46418,1.3633 0.65234,1.3633 0.16182,0 0.16121,-0.088 -0.006,-0.7285 -0.20004,-0.766 -0.1772,-1.6119 0.0508,-1.8906 0.15864,-0.1939 0.1965,-0.2009 0.26758,-0.049 0.0457,0.098 0.0832,0.2466 0.084,0.3301 0.003,0.3277 0.33285,0.1394 0.47851,-0.2734 0.15992,-0.4531 0.3333,-0.5644 0.33203,-0.2129 -8.3e-4,0.3274 -0.68016,3.7158 -0.81054,4.0449 -0.0635,0.1602 -0.23091,0.5082 -0.37305,0.7734 -0.40165,0.749 -0.56292,1.6449 -0.55664,3.1094 0.0121,2.8227 0.66025,5.4953 1.62109,6.6817 0.64426,0.7955 1.71559,1.2854 2.22852,1.0195 0.23395,-0.1213 0.42939,-0.765 0.50195,-1.6582 0.0371,-0.4568 0.0922,-0.8633 0.12109,-0.9024 0.1673,-0.2261 0.48922,0.7955 0.63672,2.0176 0.0814,0.6741 0.19845,0.7775 0.78907,0.7051 0.32743,-0.04 0.66509,-0.1797 0.91406,-0.3769 0.8763,-0.6939 1.08746,-1.3641 1.00976,-3.2149 -0.16515,-3.9335 -0.16533,-4.0524 0.0195,-4.8789 0.0971,-0.4344 0.28862,-1.1457 0.42579,-1.5801 0.64745,-2.0504 0.24485,-4.6829 -0.93164,-6.082 -0.35293,-0.4198 -0.46925,-0.4912 -0.70508,-0.4395 l -0.28125,0.062 0.0117,-1.539 c 0.0112,-1.4581 -0.001,-1.5728 -0.23438,-2.1699 -0.34023,-0.8718 -0.79128,-1.4226 -1.42773,-1.7442 -0.70906,-0.3582 -0.96016,-0.7987 -1.08399,-1.9004 -0.0859,-0.7643 -0.12104,-1.0603 -0.18945,-1.0879 z m 0.84376,-9.8161 c 0.36879,-0.01 0.46155,0.045 0.83008,0.5039 0.22814,0.2841 0.47899,0.5176 0.55859,0.5176 0.2345,0 0.67256,0.7722 1.01367,1.7871 0.2788,0.8297 0.31954,1.0659 0.32032,1.9179 7.4e-4,0.8297 -0.037,1.0703 -0.25391,1.6407 -0.13982,0.3675 -0.37344,0.8744 -0.51953,1.125 -0.14608,0.2507 -0.29317,0.4551 -0.32617,0.455 -0.0328,-10e-5 -0.0598,-0.5069 -0.0606,-1.125 -9.5e-4,-0.9292 -0.0373,-1.2242 -0.21094,-1.7031 -0.28613,-0.7894 -0.49843,-0.9291 -0.80859,-0.5371 -0.13099,0.1656 -0.32573,0.3359 -0.43164,0.3789 -0.19692,0.08 -0.49682,0.8675 -0.61328,1.6113 -0.0333,0.2126 -0.12202,0.456 -0.19922,0.543 -0.1249,0.14 -0.13363,0.102 -0.0781,-0.3418 0.0548,-0.4382 0.0146,-0.6233 -0.32617,-1.5156 l -0.38867,-1.0176 0,-1.3359 c 0,-1.2013 0.0225,-1.3917 0.22461,-1.875 0.27468,-0.657 0.71572,-1.0133 1.26953,-1.0293 z m 0.83789,-2.0098 c -0.23065,-0.0983 -1.1858,0.68529 -1.69141,1.4453 -0.77242,1.161 -1.10185,2.9379 -0.84375,4.5449 0.0804,0.5006 0.25923,1.228 0.39844,1.6172 0.17355,0.4853 0.2539,0.8994 0.25391,1.3145 0,0.4889 0.0315,0.6134 0.16406,0.6484 0.0902,0.024 0.24137,-0.053 0.33594,-0.1679 0.0997,-0.122 0.33986,-0.2207 0.57226,-0.2344 0.40377,-0.024 0.99432,-0.4857 1.10157,-0.8633 0.11718,-0.4126 0.20898,0.052 0.20898,1.0605 0,1.3331 0.0946,1.373 0.72461,0.3165 0.7251,-1.2161 0.93081,-1.9133 0.96875,-3.2813 0.0608,-2.1928 -0.40742,-3.496 -1.3125,-3.6582 -0.77712,-0.1392 -1.21291,-1.0686 -0.95899,-2.04103 0.0713,-0.2731 0.12891,-0.54316 0.12891,-0.60156 0,-0.0527 -0.0178,-0.0856 -0.0508,-0.0996 z m -1.45317,-7.63279 c -0.14596,-0.0648 -0.47417,0.67845 -0.4746,1.07421 0,0.3867 0.0614,0.47461 0.32812,0.47461 0.14334,0 0.22526,-0.0869 0.26172,-0.2832 0.0801,-0.43117 0.009,-1.21058 -0.11524,-1.26562 z"
         style="fill:#d04f00;fill-opacity:1;stroke:none"
         id="path4162-5"
         inkscape:connector-curvature="0" />
      <path
         id="path4428"
         d="m 121.01295,1032.9259 c 0.0872,-0.32 0.25938,-0.7438 0.3826,-0.9416 0.19272,-0.3095 0.28629,-0.3598 0.66934,-0.3598 0.42771,0 0.46542,0.029 0.95457,0.7291 0.2801,0.4009 0.58107,0.729 0.66883,0.729 0.0878,0 0.22807,-0.1412 0.31179,-0.3139 0.13456,-0.2774 0.14838,-0.6405 0.11904,-3.1289 -0.0541,-4.5893 -0.0739,-4.212 0.2583,-4.9116 0.26533,-0.5586 0.29411,-0.71 0.30258,-1.592 0.007,-0.7241 -0.0294,-1.0546 -0.14158,-1.2859 -0.19362,-0.3992 -0.27203,-0.3917 -0.504,0.048 -0.16874,0.3203 -0.21634,0.3462 -0.43332,0.236 -0.29546,-0.1499 -0.93307,-0.9649 -1.27421,-1.6285 -0.28773,-0.5597 -0.5778,-1.7882 -0.73024,-3.0927 l -0.10582,-0.9056 -0.16846,0.2811 c -0.27028,0.451 -0.23675,2.3856 0.0581,3.3527 0.25619,0.8403 0.26984,1.12 0.093,1.9073 -0.167,0.7435 -0.20603,0.8396 -1.12515,2.7708 -1.37271,2.8845 -1.62196,4.0506 -1.18549,5.5468 0.3501,1.2 1.48669,3.4631 1.62788,3.2413 0.035,-0.055 0.135,-0.3619 0.22222,-0.682 z"
         style="fill:#ffffff;stroke:#ffffff"
         inkscape:connector-curvature="0" />
      <path
         d="m 121.4835,1016.5038 0.10742,0.9062 c 0.15244,1.3045 0.44078,2.5321 0.72851,3.0918 0.34114,0.6637 0.97993,1.479 1.27539,1.6289 0.21698,0.1102 0.26486,0.084 0.4336,-0.2363 0.23197,-0.4399 0.31028,-0.4461 0.5039,-0.047 0.11218,0.2313 0.14763,0.561 0.14063,1.2852 -0.008,0.8819 -0.0374,1.0331 -0.30274,1.5918 -0.3322,0.6995 -0.31191,0.3227 -0.25781,4.9121 0.0293,2.4884 0.0154,2.8514 -0.11914,3.1289 -0.0837,0.1726 -0.2247,0.3144 -0.3125,0.3144 -0.0878,0 -0.38787,-0.3295 -0.66797,-0.7304 -0.48915,-0.7 -0.52737,-0.7286 -0.95508,-0.7286 -0.38304,0 -0.47524,0.05 -0.66796,0.3594 -0.12322,0.1978 -0.29562,0.6214 -0.38282,0.9414 -0.0872,0.3201 -0.18765,0.6269 -0.22265,0.6817 -0.14119,0.2218 -1.27881,-2.0402 -1.62891,-3.2403 -0.43647,-1.4961 -0.18716,-2.6624 1.18555,-5.5468 0.91912,-1.9313 0.958,-2.028 1.125,-2.7715 0.17684,-0.7873 0.16439,-1.066 -0.0918,-1.9063 -0.29485,-0.9671 -0.32887,-2.9025 -0.0586,-3.3535 l 0.16797,-0.2812 z m -2.68164,-0.1758 c -0.13872,0.012 -0.2877,0.1262 -0.47266,0.3457 -0.39318,0.4664 -0.67141,1.3449 -0.79883,2.5274 -0.085,0.7887 -0.0758,1.0788 0.0508,1.8359 0.13872,0.8293 0.29763,1.3099 0.39258,1.1816 0.0213,-0.029 -0.003,-0.2626 -0.0566,-0.5195 -0.13214,-0.6429 -0.12265,-0.9686 0.0469,-1.4512 0.16345,-0.4653 0.49522,-0.5656 0.66601,-0.2011 0.068,0.1451 0.11333,0.1663 0.14453,0.066 0.10723,-0.3418 0.41885,-0.7657 0.5625,-0.7657 0.0855,0 0.20982,0.068 0.27539,0.1524 0.0986,0.1256 0.10967,-0.01 0.0664,-0.7598 -0.0669,-1.1674 -0.20163,-1.7816 -0.46875,-2.1426 -0.14172,-0.1914 -0.26948,-0.2814 -0.4082,-0.2695 z m 5.71875,-1.5142 c -0.10805,-0.032 -0.17291,0.4606 -0.0957,0.7324 0.0842,0.2964 0.25003,-10e-5 0.21485,-0.3828 -0.0162,-0.1773 -0.0697,-0.335 -0.11914,-0.3496 z m -3.61329,-3.5508 -0.19531,0.4258 c -0.76622,1.6676 -1.02692,4.5134 -0.58984,6.4395 0.4855,2.1393 0.0804,3.7774 -1.57422,6.3769 -0.45741,0.7186 -0.5629,0.977 -0.69141,1.6856 -0.31302,1.7257 0.0108,4.8815 0.70313,6.8613 0.49403,1.4127 1.32189,2.2189 2.37695,2.3105 0.53487,0.046 0.55964,0.034 0.68555,-0.3007 0.0718,-0.1912 0.16,-0.7548 0.19531,-1.254 0.13391,-1.8935 0.48019,-1.7941 0.89844,0.2579 0.077,0.3778 0.14062,0.8259 0.14062,0.9961 0,0.5286 0.3343,0.6674 1.03321,0.4296 0.43289,-0.1473 1.05988,-0.7997 1.2539,-1.3066 0.20563,-0.5372 0.24918,-1.3494 0.14063,-2.6289 -0.2644,-3.1166 -0.21654,-3.8536 0.37109,-5.6055 0.55592,-1.6573 0.54804,-3.2933 -0.0254,-4.8672 -0.28434,-0.7803 -0.94702,-1.7402 -1.20117,-1.7402 -0.0771,0 -0.2398,0.09 -0.36133,0.1973 -0.47351,0.4191 -0.61565,-0.067 -0.3457,-1.1817 0.21471,-0.8868 0.13286,-2.076 -0.19922,-2.9004 -0.30583,-0.7592 -0.61973,-1.1082 -1.31445,-1.4589 -0.75183,-0.3795 -0.94653,-0.747 -1.22461,-2.3106 l -0.0762,-0.4258 z m 0.97071,-10.3164 c -0.55381,0.016 -0.99485,0.3723 -1.26953,1.0293 -0.20207,0.4833 -0.22657,0.6737 -0.22657,1.875 l 0,1.336 0.38868,1.0175 c 0.34081,0.8924 0.38097,1.0775 0.32617,1.5157 -0.0555,0.4438 -0.0468,0.4818 0.0781,0.3418 0.0772,-0.087 0.16787,-0.3304 0.20117,-0.543 0.11646,-0.7438 0.41637,-1.5312 0.61329,-1.6113 0.10591,-0.043 0.29869,-0.2134 0.42968,-0.379 0.31016,-0.3919 0.52247,-0.2523 0.8086,0.5372 0.17359,0.4788 0.21194,0.774 0.21289,1.7031 7.7e-4,0.6181 0.0277,1.1249 0.0605,1.125 0.033,10e-5 0.17814,-0.2045 0.32422,-0.4551 0.14609,-0.2506 0.38167,-0.7574 0.52149,-1.125 0.21693,-0.5704 0.25269,-0.811 0.25195,-1.6406 -7.8e-4,-0.8521 -0.0396,-1.0883 -0.31836,-1.918 -0.34111,-1.0149 -0.77917,-1.7871 -1.01367,-1.7871 -0.0796,0 -0.33241,-0.2336 -0.56055,-0.5176 -0.36853,-0.4588 -0.45933,-0.5142 -0.82812,-0.5039 z"
         style="fill:#f8f106;fill-opacity:1;stroke:#f8f106;stroke-width:0.5;stroke-miterlimit:4;stroke-dasharray:none;stroke-opacity:1"
         id="path4532"
         inkscape:connector-curvature="0" />
    </g>
    <g
       id="g4769"
       transform="matrix(4.1864012,0,0,1.9755051,49.033798,-1032.7219)"
       style="opacity:0.79">
      <path
         d="m 45.168116,996.68462 c 0.04083,-0.0575 -0.02264,0.35342 -0.140625,0.91211 -0.290557,1.37557 -0.289816,2.20551 0.002,2.59967 0.289872,0.3916 0.615676,0.3837 0.851563,-0.022 0.102519,-0.17605 0.1875,-0.39538 0.1875,-0.48638 -10e-7,-0.3065 0.163817,-0.16853 0.574218,0.48048 1.14085,1.8042 1.369677,2.8832 1.279297,6.0117 -0.05969,2.0662 -0.217596,3.6593 -0.412109,4.1504 -0.05363,0.1354 -0.207196,0.2755 -0.341797,0.3125 -0.60886,0.1658 -0.690425,0.2416 -0.845703,0.7891 -0.228127,0.8044 -0.209122,1.5134 0.05273,1.9804 0.27259,0.4864 0.440938,1.3023 0.685547,3.3047 0.285447,2.3368 0.472828,2.765 0.888672,2.0508 0.294423,-0.5058 0.647932,-1.5692 0.701172,-2.1055 0.05537,-0.5577 0.131309,-0.6168 0.273437,-0.2187 0.213942,0.5991 0.318008,1.5802 0.378906,3.5527 0.06029,1.9527 0.172188,2.7916 0.4375,3.2715 0.147175,0.2661 0.285157,1.1493 0.285157,1.832 0,0.6471 -0.04988,1.1875 -0.271485,2.9786 -0.481888,3.8952 -1.505885,6.6621 -2.716796,7.3437 l 0,0 c -0.70974,0.3995 -0.941743,0.2291 -1.240235,-0.9063 -0.429447,-1.6338 -0.728546,-1.6217 -1.158203,0.047 -0.101364,0.3937 -0.202209,0.7405 -0.224609,0.7715 -0.0224,0.03 -0.336963,-0.1554 -0.699219,-0.4121 -0.936465,-0.6638 -1.773119,-1.809 -2.070313,-2.836 -0.352324,-1.2176 -0.490262,-2.9001 -0.345703,-4.2168 0.137924,-1.2563 0.245587,-1.7046 0.722656,-3.0136 0.392484,-1.0769 0.71875,-2.3596 0.71875,-2.8243 1e-6,-0.1662 -0.117823,-0.4836 -0.261718,-0.705 -0.352632,-0.5426 -0.566138,-1.5982 -0.580078,-2.8555 -0.0091,-0.8199 0.02194,-1.1076 0.152343,-1.377 0.173424,-0.3585 0.339194,-0.3772 1.195313,-0.1328 0.277553,0.079 0.282546,0.071 0.550781,-0.8125 0.14903,-0.4908 0.321173,-1.1847 0.382813,-1.5429 0.151567,-0.8811 0.07328,-2.1639 -0.173828,-2.8536 -0.189317,-0.5282 -0.216835,-0.5548 -0.619141,-0.5898 -0.413936,-0.036 -0.424901,-0.049 -0.660156,-0.7051 -0.300112,-0.8374 -0.525391,-2.287 -0.525391,-3.3828 0,-1.7298 0.467384,-4.2148 1.126953,-5.9844 0.380507,-1.0208 1.72967,-4.25316 1.839844,-4.40818 z m 0.205078,-0.7832 c -0.14743,0.0384 -1.091043,2.21967 -2.039063,4.71488 -1.35226,3.5593 -1.652279,7.486 -0.755859,9.8965 0.27315,0.7345 0.424303,0.9179 0.757813,0.9179 0.34254,0 0.509398,0.3214 0.605468,1.1699 0.0567,0.5006 0.02304,0.8096 -0.257812,2.4161 -0.27644,1.581 -0.332218,1.7773 -0.486328,1.6914 -0.078,-0.043 -0.306633,-0.1053 -0.507813,-0.1387 -0.29995,-0.05 -0.412586,-0.01 -0.628906,0.2461 -0.25176,0.2925 -0.265652,0.3583 -0.294922,1.4512 -0.0314,1.1719 0.126516,2.2054 0.478516,3.125 0.24768,0.6472 1.4e-4,2.4588 -0.53125,3.875 -0.43892,1.1702 -0.543952,1.8988 -0.544922,3.7832 -8.1e-4,1.6244 0.01715,1.8335 0.246094,2.6738 0.29277,1.0743 0.753656,1.9418 1.373047,2.5859 0.5467,0.5686 1.449442,1.2089 1.632812,1.1582 0.0759,-0.022 0.229966,-0.4086 0.353516,-0.8867 0.12066,-0.4669 0.281542,-0.9321 0.357422,-1.0332 0.16964,-0.226 0.231129,-0.105 0.599609,1.166 0.34269,1.1821 0.572807,1.305 1.460937,0.7774 l 0,0 c 1.34913,-0.8013 2.407553,-4.1168 2.882813,-9.0351 0.15755,-1.6305 0.102879,-2.271 -0.300781,-3.5411 -0.20285,-0.6381 -0.239325,-0.97 -0.296875,-2.6718 -0.0919,-2.7174 -0.37168,-4.3145 -0.75586,-4.3145 -0.12904,0 -0.164555,0.1287 -0.265625,0.9727 -0.0627,0.5236 -0.550548,1.7011 -0.705078,1.7011 -0.13664,0 -0.35535,-0.9908 -0.5625,-2.5527 -0.17672,-1.3325 -0.469991,-2.7629 -0.58789,-2.8613 -0.12056,-0.1006 -0.09705,-1.5272 0.03125,-1.8692 0.0676,-0.1802 0.234301,-0.3398 0.425781,-0.4062 0.41445,-0.1437 0.582372,-0.3602 0.701172,-0.9102 0.25473,-1.1795 0.442765,-5.2757 0.296875,-6.4687 -0.13848,-1.1324 -0.448249,-2.0348 -1.105469,-3.2207 -0.6471,-1.16762 -0.823579,-1.36922 -1.011719,-1.15822 -0.0648,0.073 -0.213384,0.0815 -0.371094,0.0215 -0.14455,-0.055 -0.31317,-0.0778 -0.375,-0.0488 -0.18159,0.084 -0.136725,-0.66365 0.109375,-1.79687 0.26934,-1.24017 0.282716,-1.48249 0.07227,-1.42774 z m 1.441366,-3.77147 c -0.02677,0.009 -0.05477,0.0275 -0.08789,0.0547 -0.21888,0.17976 -0.261532,1.01376 -0.07617,1.49804 0.15059,0.39346 0.301445,0.46583 0.478515,0.22657 0.17572,-0.23741 0.133174,-1.24365 -0.06641,-1.57227 -0.1062,-0.17484 -0.167748,-0.23395 -0.248047,-0.20703 z m -1.484375,-6.58008 c -0.87788,0 -1.15253,0.3866 -0.84375,1.19336 0.14505,0.37896 0.424886,0.604 0.816406,0.6543 0.253651,0.0326 0.269601,0.0625 0.244141,0.49804 -0.0242,0.41394 -0.01013,0.45173 0.134766,0.34571 0.0891,-0.0653 0.266834,-0.27531 0.396484,-0.46485 0.3003,-0.43899 0.380366,-0.89488 0.259766,-1.5 -0.11994,-0.60178 -0.293013,-0.72656 -1.007813,-0.72656 z"
         style="fill:#d04f00;fill-opacity:1;stroke:none"
         id="path4702"
         inkscape:connector-curvature="0" />
      <path
         id="path4420"
         d="m 46.906432,1033.9934 c 0.38827,-0.5728 1.06464,-2.3327 1.3483,-3.5084 0.26665,-1.1052 0.29773,-2.1019 0.09,-2.8854 -0.0775,-0.2925 -0.19482,-0.9742 -0.26067,-1.5149 -0.0658,-0.5407 -0.20476,-1.2083 -0.30872,-1.4836 -0.10396,-0.2753 -0.18901,-0.7091 -0.18901,-0.9639 0,-0.6289 -0.50273,-1.7516 -1.31165,-2.9289 -0.67867,-0.9878 -0.93598,-1.5332 -0.93798,-1.9883 -0.002,-0.4575 -0.10462,-0.8393 -0.21258,-0.791 -0.0555,0.025 -0.21159,0.3415 -0.34679,0.7037 -0.19956,0.5346 -0.24705,0.8299 -0.2524,1.5697 -0.007,1.0288 -0.15564,1.762 -0.35617,1.762 -0.0803,0 -0.14642,-0.1352 -0.16336,-0.3342 -0.029,-0.3408 -0.1396,-0.4351 -0.24359,-0.2077 -0.0318,0.07 -0.07,0.9307 -0.085,1.9137 -0.0305,2.0059 -0.18708,3.1318 -0.56672,4.0748 -0.23035,0.5721 -0.24541,0.7034 -0.24541,2.1381 0,1.2275 0.0354,1.6587 0.17987,2.1889 0.20814,0.7642 0.62135,1.413 0.97661,1.5334 0.28883,0.098 0.61172,-0.2409 0.83486,-0.8763 0.20691,-0.589 0.39101,-0.617 0.71789,-0.1088 0.19197,0.2985 0.31342,0.6598 0.38345,1.1407 0.16279,1.118 0.45635,1.2932 0.94907,0.5664 z"
         style="fill:#ffffff;stroke:#ffffff"
         inkscape:connector-curvature="0" />
      <path
         d="m 45.118261,1017.9257 c 0.10796,-0.048 0.20894,0.3335 0.21094,0.791 0.002,0.4551 0.26078,1.0005 0.93945,1.9883 0.80892,1.1773 1.31055,2.2987 1.31055,2.9277 0,0.2548 0.0855,0.6895 0.18945,0.9648 0.10396,0.2753 0.2428,0.9437 0.3086,1.4844 0.0658,0.5407 0.18422,1.2212 0.26172,1.5137 0.20772,0.7835 0.17485,1.7815 -0.0918,2.8867 -0.28366,1.1757 -0.95939,2.935 -1.34766,3.5078 -0.49272,0.7268 -0.78643,0.5516 -0.94922,-0.5664 -0.07,-0.4809 -0.19084,-0.8421 -0.38281,-1.1406 -0.32687,-0.5082 -0.51185,-0.4816 -0.71875,0.1074 -0.22314,0.6354 -0.54515,0.975 -0.83398,0.877 -0.35526,-0.1205 -0.76842,-0.7691 -0.97657,-1.5332 -0.14447,-0.5303 -0.17968,-0.962 -0.17968,-2.1895 0,-1.4347 0.0138,-1.5646 0.24414,-2.1367 0.37965,-0.943 0.53786,-2.0703 0.56836,-4.0762 0.015,-0.983 0.0522,-1.8423 0.084,-1.9121 0.10399,-0.2274 0.21514,-0.1337 0.24414,0.207 0.0169,0.199 0.0818,0.334 0.16211,0.334 0.20053,0 0.35042,-0.7329 0.35742,-1.7617 0.005,-0.7399 0.0524,-1.0357 0.25196,-1.5703 0.1352,-0.3622 0.29215,-0.6782 0.34765,-0.7031 z m 0.03321,-21.22725 c -0.11018,0.15502 -1.45934,3.38745 -1.83985,4.40835 -0.65957,1.7695 -1.12891,4.2546 -1.12891,5.9843 0,1.0958 0.22529,2.5455 0.5254,3.3829 0.23526,0.6564 0.24816,0.669 0.6621,0.705 0.4023,0.035 0.42984,0.062 0.61915,0.5899 0.24711,0.6897 0.32539,1.9725 0.17382,2.8535 -0.0616,0.3583 -0.23378,1.0522 -0.38281,1.543 -0.26823,0.8833 -0.27518,0.8917 -0.55273,0.8125 -0.85612,-0.2444 -1.01994,-0.2257 -1.19336,0.1328 -0.1304,0.2695 -0.1634,0.557 -0.1543,1.3769 0.0139,1.2574 0.22939,2.3129 0.58203,2.8555 0.14389,0.2214 0.26172,0.5388 0.26172,0.7051 0,0.4646 -0.32822,1.7472 -0.7207,2.8242 -0.47707,1.309 -0.58474,1.7573 -0.72266,3.0137 -0.14456,1.3167 -0.007,2.9991 0.3457,4.2168 0.2972,1.0269 1.13385,2.1722 2.07032,2.8359 0.36225,0.2568 0.67682,0.4423 0.69922,0.4121 0.0224,-0.031 0.12324,-0.3778 0.2246,-0.7715 0.42967,-1.6686 0.73072,-1.6804 1.16016,-0.047 0.2985,1.1354 0.5305,1.3057 1.24024,0.9063 1.21091,-0.6816 2.2349,-3.4506 2.71679,-7.3457 0.2216,-1.7912 0.27149,-2.3295 0.27149,-2.9766 0,-0.6826 -0.13798,-1.5678 -0.28516,-1.834 -0.26531,-0.4798 -0.37721,-1.3167 -0.4375,-3.2695 -0.0609,-1.9724 -0.16692,-2.9555 -0.38086,-3.5547 -0.14213,-0.398 -0.21611,-0.337 -0.27148,0.2207 -0.0532,0.5363 -0.40871,1.5997 -0.70313,2.1055 -0.41585,0.7143 -0.60127,0.284 -0.88672,-2.0528 -0.24461,-2.0024 -0.41295,-2.8164 -0.68554,-3.3027 -0.26186,-0.4671 -0.28091,-1.178 -0.0527,-1.9824 0.15527,-0.5475 0.23489,-0.6213 0.84375,-0.7871 0.1346,-0.037 0.28817,-0.179 0.3418,-0.3145 0.19452,-0.491 0.35437,-2.0842 0.41406,-4.1504 0.0904,-3.1284 -0.1404,-4.2075 -1.28125,-6.0117 -0.4104,-0.64904 -0.57422,-0.78694 -0.57422,-0.48054 0,0.091 -0.083,0.31034 -0.18554,0.48634 -0.23589,0.4053 -0.5617,0.4135 -0.85157,0.021 -0.29177,-0.39414 -0.29231,-1.22404 -0.002,-2.59969 0.11799,-0.55869 0.18145,-0.96956 0.14063,-0.9121 z"
         style="fill:#f8f106;fill-opacity:1;stroke:#f8f106;stroke-width:0.5;stroke-miterlimit:4;stroke-dasharray:none;stroke-opacity:1"
         id="path4530"
         inkscape:connector-curvature="0" />
    </g>
    <g
       id="g4774"
       transform="matrix(4.1864012,0,0,1.9755051,144.70495,-1032.7219)"
       style="opacity:0.79">
      <path
         d="m 58.037294,1014.3758 c 0.260309,-0.036 0.509235,0.1696 0.673828,0.5996 0.215069,0.5619 0.133242,2.0555 -0.15625,2.8398 -0.223177,0.6047 -0.555584,1.0143 -0.652344,0.8028 -0.03026,-0.066 -0.01761,-0.1524 0.0293,-0.1914 0.04691,-0.039 0.136205,-0.3735 0.197265,-0.7422 0.143599,-0.867 0.02952,-1.0799 -0.365234,-0.6856 -0.146731,0.1466 -0.307905,0.2676 -0.359375,0.2676 -0.05795,0 -0.09375,-0.4206 -0.09375,-1.1035 0,-1.057 0.0098,-1.1185 0.261719,-1.459 0.147509,-0.1993 0.308657,-0.3068 0.464844,-0.3281 z m 6.171874,-0.5117 c 0.126211,0 0.147978,0.79 0.03711,1.3261 -0.141071,0.682 -0.371094,0.3578 -0.371094,-0.5234 0,-0.5178 0.119722,-0.8027 0.333984,-0.8027 z m -0.002,-0.2246 c -0.08406,-0.023 -0.157698,0.05 -0.292968,0.2597 -0.26119,0.4059 -0.296849,1.2151 -0.07422,1.6446 0.22311,0.4303 0.425477,0.2821 0.554687,-0.4063 0.14448,-0.7697 0.109754,-1.2749 -0.09766,-1.4453 -0.03347,-0.028 -0.06182,-0.045 -0.08984,-0.053 z m -3.470703,-4.5157 c 0.04417,0 0.08203,0.174 0.08203,0.3868 0,0.5503 0.308814,1.3445 0.621093,1.5937 0.146436,0.1169 0.294035,0.3333 0.328125,0.4824 0.03409,0.1489 0.235133,0.5224 0.445313,0.8281 0.5518,0.8029 0.560346,0.9264 0.132812,1.8477 -0.201738,0.4346 -0.390269,0.9784 -0.417969,1.209 -0.06816,0.5674 0.195428,0.8353 1.289063,1.3086 0.466482,0.2019 0.939312,0.4479 1.050781,0.5469 0.304335,0.2694 0.578051,1.0152 0.730469,1.9941 0.183109,1.1761 0.172693,2.292 -0.03711,3.7324 -0.299968,2.0596 -0.28626,2.7148 0.07617,3.4571 0.144264,0.2955 0.289628,0.7421 0.324218,0.9941 0.13288,0.969 -0.411204,4.1448 -0.884765,5.1582 -0.482384,1.0324 -2.057657,2.707 -2.550782,2.707 -0.267827,0 -0.520783,-0.4716 -0.75,-1.4023 -0.105924,-0.43 -0.23252,-0.8145 -0.28125,-0.8555 -0.167031,-0.1396 -0.395262,0.3004 -0.615234,1.1875 -0.121069,0.4884 -0.255871,0.958 -0.300781,1.041 -0.163714,0.3045 -0.667171,0.1428 -1.289063,-0.414 -0.932415,-0.835 -1.450774,-2.251 -1.652343,-4.5176 -0.04552,-0.5119 -0.14611,-1.5886 -0.22461,-2.3906 -0.233789,-2.3886 -0.255769,-3.4098 -0.0957,-4.5411 0.225489,-1.5936 0.51634,-2.3401 1.1875,-3.0527 0.667448,-0.7087 1.184134,-1.6143 1.613281,-2.8242 0.362758,-1.0227 0.383693,-1.3905 0.107422,-1.8652 -0.289819,-0.4981 -0.280812,-2.0693 0.01758,-3.2696 0.299968,-1.2065 0.99837,-3.3418 1.09375,-3.3418 z m 0.466807,-12.45678 c 0.103552,0.0406 0.287931,0.20965 0.498047,0.47461 0.971479,1.22506 1.757925,4.66607 1.765625,7.72857 0.0039,1.5424 -0.0097,1.6802 -0.238281,2.3086 -0.133668,0.3675 -0.465128,0.983 -0.736328,1.3672 -0.615675,0.8724 -0.731177,0.8943 -0.628907,0.1211 0.042,-0.3174 0.07736,-1.0143 0.07813,-1.5489 l 0,-0.9726 -0.269531,-0.041 c -0.148393,-0.023 -0.48227,0.022 -0.742187,0.1 -0.50815,0.1528 -0.777766,0.5029 -1.033204,1.3398 -0.531986,1.7428 -1.342816,-0.01 -1.066406,-2.3027 0.132745,-1.1019 0.486886,-1.9918 1.158203,-2.916 0.714422,-0.9835 1.142084,-2.1186 1.291016,-3.42195 0.101584,-0.88889 0.0666,-1.38981 -0.146484,-2.08399 -0.02407,-0.0784 -0.02349,-0.12718 -0.0039,-0.14844 0.01469,-0.0159 0.0397,-0.0174 0.07422,-0.004 z M 60.8771,996.24124 c -0.29102,0 -0.319903,0.29667 -0.05859,0.58984 0.26894,0.30173 0.381321,1.31036 0.232421,2.08594 -0.0892,0.4643 -0.206892,0.72204 -0.451171,0.99414 -0.31642,0.35254 -0.861329,1.59944 -0.861329,1.97074 0,0.098 -0.16642,0.5358 -0.36914,0.9727 -0.51093,1.1009 -0.711405,2.0424 -0.708985,3.332 0.004,2.0966 0.674661,2.9577 1.337891,1.7207 l 0.248047,-0.4629 0.24414,0.4141 0.244141,0.4121 -0.462891,1.4824 c -0.89999,2.8716 -1.006508,3.3903 -1.017578,4.9785 -0.005,0.7797 -0.04102,1.4598 -0.07813,1.5098 -0.0371,0.05 -0.06726,-0.068 -0.06836,-0.2637 -0.003,-0.4867 -0.295238,-1.3128 -0.548828,-1.5527 -0.30879,-0.2923 -0.817535,-0.2566 -1.046875,0.074 -0.28084,0.4051 -0.38086,0.8663 -0.380859,1.748 0,1.205 0.188792,1.5181 0.601562,0.9942 0.32468,-0.4121 0.403276,-0.1456 0.197266,0.6758 -0.20826,0.8304 -0.175827,1.1026 0.121093,0.9804 0.11154,-0.046 0.274759,-0.1669 0.361329,-0.2695 0.1426,-0.1692 0.15625,-0.1665 0.15625,0.027 0,0.43 -0.307397,1.0706 -0.779297,1.6211 -0.56359,0.6574 -0.752016,1.0501 -1.009766,2.1094 -0.3641,1.4963 -0.387846,2.4329 -0.134766,5.3887 0.26468,3.0911 0.47521,4.4475 0.84375,5.4687 0.45681,1.2659 1.473814,2.3692 2.183594,2.3692 0.29817,0 0.353811,-0.048 0.462891,-0.3946 l 0,0 c 0.0684,-0.2172 0.22082,-0.7175 0.33789,-1.1133 0.11708,-0.3958 0.258764,-0.7405 0.314454,-0.7656 0.0562,-0.026 0.170019,0.2505 0.255859,0.6191 0.20084,0.8628 0.441091,1.3855 0.712891,1.5528 0.187219,0.1153 0.3021,0.071 0.80664,-0.3106 0.80042,-0.6047 1.849546,-2.006 2.191406,-2.9277 0.39457,-1.0639 0.649442,-2.4366 0.707032,-3.791 0.0491,-1.1555 0.04347,-1.2119 -0.220704,-1.8711 -0.372619,-0.9299 -0.410703,-1.3374 -0.246093,-2.6192 0.37026,-2.8832 0.348169,-4.453 -0.08203,-5.7226 -0.261301,-0.7712 -0.527321,-1.1183 -1.181641,-1.5508 -0.27311,-0.1805 -0.477188,-0.3529 -0.455078,-0.3828 0.062,-0.084 -0.289875,-1.2625 -0.490235,-1.6426 -0.17054,-0.3236 -0.173006,-0.3585 -0.0293,-0.7676 0.1299,-0.3698 0.136003,-0.4823 0.0332,-0.8223 -0.0655,-0.2166 -0.273268,-0.6003 -0.460938,-0.8535 -0.18768,-0.2532 -0.341797,-0.5656 -0.341797,-0.6933 0,-0.1276 -0.150437,-0.3851 -0.335937,-0.5723 -0.18549,-0.1872 -0.384807,-0.4196 -0.441407,-0.5176 -0.24455,-0.4232 -0.19287,-2.051 0.0625,-1.9707 0.0681,0.022 0.177761,-0.06 0.244141,-0.1816 0.10468,-0.1918 0.11742,-0.1192 0.09375,0.5547 -0.0202,0.5749 0.0046,0.7928 0.0957,0.8359 0.17377,0.082 1.378724,-1.64 1.621094,-2.3164 0.32138,-0.897 0.406893,-1.9954 0.283203,-3.6641 -0.30407,-4.10229 -1.538172,-7.48046 -2.732422,-7.48046 z m -0.05668,-10.81442 c -0.17769,0 -0.632813,0.61096 -0.632813,0.84961 0,0.0923 0.08776,0.29455 0.195313,0.44922 0.25577,0.36784 0.832253,0.39439 0.970703,0.0449 0.15503,-0.39139 -0.222623,-1.34375 -0.533203,-1.34375 z"
         style="fill:#d04f00;fill-opacity:1;stroke:none"
         id="path4640"
         inkscape:connector-curvature="0" />
      <path
         id="path4426"
         d="m 62.912322,1033.2566 c 0.7775,-1.0504 1.54701,-3.3645 1.4645,-4.404 -0.0237,-0.2988 -0.12154,-0.639 -0.22758,-0.7915 -0.44376,-0.6383 -0.50936,-1.087 -0.50936,-3.4843 0,-2.2124 -0.004,-2.2597 -0.25504,-2.9936 -0.29801,-0.8714 -0.68843,-1.4149 -1.16332,-1.6196 -0.20996,-0.09 -0.46555,-0.3505 -0.67108,-0.6827 -0.18257,-0.2951 -0.36107,-0.5366 -0.39665,-0.5366 -0.10543,0 -1.97081,3.5368 -2.179,4.1314 -0.17458,0.4986 -0.19203,0.7609 -0.19811,2.977 -0.006,2.121 -0.0327,2.5641 -0.21139,3.4826 -0.19852,1.0205 -0.20033,1.0785 -0.0598,1.9134 0.16677,0.9907 0.49755,2.0641 0.70865,2.2997 0.22449,0.2504 0.46388,0.071 0.86797,-0.6527 0.52332,-0.9365 0.72652,-0.9183 1.40945,0.1262 0.65047,0.9948 0.83553,1.0254 1.42074,0.2347 z"
         style="fill:#ffffff;stroke:#ffffff"
         inkscape:connector-curvature="0" />
      <path
         d="m 61.147561,1018.7401 c 0.0356,0 0.21391,0.2421 0.39648,0.5371 0.20552,0.3322 0.45996,0.5931 0.66993,0.6836 0.47487,0.2047 0.86605,0.7478 1.16406,1.6192 0.25105,0.7339 0.25586,0.7817 0.25586,2.9941 0,2.3973 0.064,2.8442 0.50781,3.4824 0.10604,0.1526 0.20482,0.4942 0.22851,0.793 0.0825,1.0395 -0.68734,3.3538 -1.46484,4.4043 -0.5852,0.7907 -0.76946,0.7585 -1.41992,-0.2363 -0.68294,-1.0445 -0.88684,-1.0615 -1.41016,-0.125 -0.40409,0.7232 -0.64269,0.9028 -0.86718,0.6523 -0.2111,-0.2356 -0.54223,-1.3082 -0.70899,-2.2988 -0.14054,-0.835 -0.13994,-0.8936 0.0586,-1.9141 0.17869,-0.9185 0.2069,-1.3614 0.2129,-3.4824 0.006,-2.2161 0.0227,-2.478 0.19726,-2.9766 0.20818,-0.5946 2.07427,-4.1328 2.17969,-4.1328 z m -3.12891,-4.3521 c -0.15618,0.021 -0.31538,0.1289 -0.46289,0.3281 -0.25195,0.3405 -0.26367,0.402 -0.26367,1.459 0,0.6829 0.0358,1.1035 0.0937,1.1035 0.0515,0 0.2146,-0.1209 0.36133,-0.2675 0.39476,-0.3943 0.50688,-0.1815 0.36328,0.6855 -0.0611,0.3687 -0.1484,0.703 -0.19531,0.7422 -0.0469,0.039 -0.0615,0.1253 -0.0312,0.1914 0.0968,0.2115 0.42916,-0.1981 0.65234,-0.8027 0.28949,-0.7843 0.37327,-2.278 0.1582,-2.8399 -0.16458,-0.43 -0.41547,-0.6352 -0.67578,-0.5996 z m 6.17188,-0.5117 c -0.21426,0 -0.33203,0.2849 -0.33203,0.8027 0,0.8812 0.23002,1.2055 0.37109,0.5235 0.11087,-0.5361 0.0871,-1.3262 -0.0391,-1.3262 z m -3.70117,-3.7617 c 0.0957,-0.058 0.32395,0.1922 0.60937,0.6933 0.21888,0.3843 0.64583,1.0992 0.94922,1.5899 0.30339,0.4905 0.55078,0.9702 0.55078,1.0644 0,0.4436 -0.34044,0.043 -1.21094,-1.4218 -0.52065,-0.8761 -0.94726,-1.6688 -0.94726,-1.7618 0,-0.09 0.0169,-0.1445 0.0488,-0.164 z m 0.23046,-0.9785 c -0.0954,0 -0.79378,2.1352 -1.09375,3.3418 -0.29839,1.2002 -0.30739,2.7714 -0.0176,3.2695 0.27627,0.4748 0.25532,0.8425 -0.10743,1.8652 -0.42915,1.2099 -0.94778,2.1155 -1.61523,2.8243 -0.67116,0.7126 -0.96006,1.4591 -1.18555,3.0527 -0.16006,1.1313 -0.13998,2.1543 0.0937,4.543 0.0785,0.8019 0.18105,1.8766 0.22657,2.3886 0.20157,2.2666 0.71992,3.6826 1.65234,4.5176 0.62189,0.5568 1.1234,0.7186 1.28711,0.4141 0.0449,-0.083 0.18166,-0.5508 0.30273,-1.0391 0.21997,-0.8871 0.44821,-1.329 0.61524,-1.1894 0.0487,0.041 0.17532,0.4254 0.28125,0.8554 0.22921,0.9306 0.48218,1.4039 0.75,1.4024 0.49313,0 2.06645,-1.6747 2.54883,-2.7071 0.47356,-1.0134 1.01959,-4.1872 0.88671,-5.1562 -0.0346,-0.2521 -0.17994,-0.7006 -0.32421,-0.9961 -0.36243,-0.7424 -0.37813,-1.3955 -0.0781,-3.4551 0.2098,-1.4404 0.22216,-2.5564 0.0391,-3.7324 -0.15242,-0.979 -0.42614,-1.7267 -0.73047,-1.9961 -0.11147,-0.099 -0.5843,-0.345 -1.05078,-0.5469 -1.09363,-0.4733 -1.35722,-0.7411 -1.28906,-1.3086 0.0277,-0.2305 0.21429,-0.7743 0.41602,-1.209 0.42754,-0.9213 0.41898,-1.0447 -0.13282,-1.8476 -0.21018,-0.3058 -0.40927,-0.6772 -0.44336,-0.8262 -0.0341,-0.1491 -0.18168,-0.3675 -0.32812,-0.4844 -0.31228,-0.2492 -0.62305,-1.0415 -0.62305,-1.5918 0,-0.2127 -0.0359,-0.3886 -0.0801,-0.3886 z m 0.39258,-12.45135 c -0.0196,0.0213 -0.0202,0.07 0.004,0.14844 0.21308,0.69418 0.24807,1.19506 0.14648,2.08407 -0.14893,1.30334 -0.57854,2.43844 -1.29297,3.42194 -0.67131,0.9241 -1.0235,1.814 -1.15625,2.916 -0.27641,2.2947 0.53248,4.0455 1.06446,2.3027 0.25544,-0.8368 0.527,-1.187 1.03515,-1.3398 0.25992,-0.078 0.5938,-0.1228 0.74219,-0.1 l 0.26953,0.041 -0.002,0.9726 c -7.7e-4,0.5347 -0.0361,1.2315 -0.0781,1.5489 -0.10227,0.7731 0.0132,0.7513 0.62891,-0.1211 0.2712,-0.3843 0.60266,-0.9996 0.73633,-1.3672 0.22853,-0.6284 0.24218,-0.7662 0.23828,-2.3086 -0.008,-3.0625 -0.79219,-6.50358 -1.76367,-7.72864 -0.28016,-0.35328 -0.51351,-0.53444 -0.57227,-0.47071 z m 1.493221,16.78485 c 0,-0.094 -0.24823,-0.5726 -0.55162,-1.0632 -0.3034,-0.4906 -0.73071,-1.2064 -0.94959,-1.5906 -0.38056,-0.6682 -0.65725,-0.8911 -0.65725,-0.5296 0,0.093 0.42598,0.8858 0.94663,1.7619 0.87051,1.4647 1.21183,1.865 1.21183,1.4215 z"
         style="fill:#f8f106;fill-opacity:1;stroke:#f8f106;stroke-width:0.5;stroke-miterlimit:4;stroke-dasharray:none;stroke-opacity:1"
         id="path4526"
         inkscape:connector-curvature="0" />
    </g>
    <g
       id="g4784"
       transform="matrix(4.1864012,0,0,1.9755051,337.3245,-1032.7219)"
       style="opacity:0.79">
      <path
         d="m 91.080225,1006.534 0.08984,0.416 c 0.16968,0.7809 0.50512,1.3142 1.37695,2.1856 1.5965,1.5961 2.17578,2.5219 2.17578,3.4785 0,0.6264 -0.18322,1.0373 -1.06445,2.3652 -0.93391,1.4072 -1.09375,1.8083 -1.09375,2.7715 0,1.0931 0.45113,2.1271 1.06836,2.4473 0.48415,0.2511 0.72811,-0.2546 0.91406,-1.8965 0.10828,-0.9562 0.11665,-0.9796 0.24219,-0.7657 0.239,0.4073 0.41983,1.5371 0.42383,2.6465 0.0044,1.0933 -0.01058,1.1916 -0.29883,1.8789 -0.49819,1.1879 -0.45959,1.441 0.47852,3.1016 0.5963,1.0555 0.71599,2.3142 0.41015,4.3359 -0.36475,2.4108 -0.55479,3.0284 -1.36718,4.4746 -0.57994,1.0324 -1.20837,1.6407 -1.69532,1.6407 -0.4293,0 -0.61077,-0.2879 -0.94531,-1.4942 -0.26498,-0.9555 -0.4399,-1.2986 -0.568359,-1.1133 -0.101051,0.1458 -0.371094,1.407 -0.371094,1.7344 0,0.1342 -0.1232,0.3856 -0.275391,0.5586 -0.526358,0.5984 -1.33507,0.3661 -1.916015,-0.5508 -1.157496,-1.827 -1.777091,-5.0496 -1.775391,-9.2382 2.33e-4,-0.7226 0.05178,-1.0944 0.230469,-1.668 0.126414,-0.4058 0.230469,-0.9016 0.230469,-1.1016 0,-0.5054 0.313497,-1.5861 0.632812,-2.1816 0.273871,-0.5109 0.495363,-0.6675 0.408203,-0.2871 -0.23281,1.0159 -0.219452,3.6204 0.01953,3.9433 0.300438,0.406 0.896391,-1.3169 1.361328,-3.9336 0.385545,-2.1697 0.350445,-2.4436 -0.333984,-2.5937 -1.308517,-0.2868 -1.818022,-1.1838 -1.695312,-2.9883 0.113135,-1.6636 1.127823,-4.2829 2.791015,-7.2051 l 0.546875,-0.9609 z m 0.218754,-0.4395 c -0.129927,0.043 -0.430604,0.4913 -0.917972,1.3594 -2.68278,4.7782 -3.430237,7.8848 -2.310547,9.6035 0.19347,0.297 0.468438,0.6056 0.611328,0.6856 0.24753,0.1385 0.25699,0.1694 0.1875,0.6543 -0.0401,0.2799 -0.07888,0.8644 -0.08398,1.2988 -0.0115,0.9652 -0.337259,3.2678 -0.349609,2.4707 -0.004,-0.2782 0.05281,-0.9351 0.126953,-1.459 0.16962,-1.1976 0.17279,-1.1575 -0.05664,-1.1113 -0.43942,0.089 -1.337891,2.3864 -1.337891,3.4238 0,0.182 -0.08992,0.5604 -0.201172,0.8418 -0.1891,0.4781 -0.202087,0.6453 -0.185547,2.5371 0.0321,3.6768 0.609091,6.4439 1.738281,8.3457 0.31859,0.5365 0.505739,0.7326 0.855469,0.8946 0.55465,0.257 0.605341,0.2591 0.988281,0.043 0.32581,-0.1839 0.670978,-0.811 0.673829,-1.2226 0.002,-0.2523 0.19991,-1.1024 0.283202,-1.2149 0.0463,-0.062 0.12376,0.1554 0.5332,1.4922 0.21236,0.6933 0.53254,1.1214 0.83594,1.1172 0.60745,-0.01 1.48662,-1.0065 2.2207,-2.5195 0.44258,-0.9122 0.59738,-1.3999 0.83399,-2.6426 0.56826,-2.9842 0.47382,-4.3723 -0.40039,-5.8984 -0.24438,-0.4266 -0.48999,-0.977 -0.54492,-1.2247 -0.09,-0.4057 -0.06999,-0.5335 0.18945,-1.2812 0.38164,-1.1002 0.47338,-1.8047 0.36719,-2.8164 -0.10492,-0.9994 -0.53869,-2.5098 -0.72071,-2.5098 -0.0961,0 -0.15888,0.2744 -0.23437,1.0332 -0.0973,0.9783 -0.34488,2.053 -0.44336,1.9199 -0.0249,-0.034 -0.1055,-0.9044 -0.17774,-1.9335 -0.07219,-1.0292 -0.15394,-1.9797 -0.18164,-2.1133 -0.0515,-0.2483 -0.02162,-0.3159 0.78516,-1.752 0.71559,-1.2739 0.67726,-2.0573 -0.16406,-3.2851 -0.27456,-0.4006 -0.8103,-1.0387 -1.18946,-1.418 -1.38303,-1.3836 -1.811252,-2.1416 -1.67773,-2.9629 0.04271,-0.2627 0.02522,-0.3814 -0.05273,-0.3555 z m -2.166019,-1.3244 c 0.0435,0.025 0.04185,0.1974 -0.01172,0.5136 -0.06924,0.4089 -0.05662,0.7098 0.04883,1.2754 0.142035,0.7618 0.106402,0.8979 -0.132812,0.5274 -0.385138,-0.5965 -0.443637,-1.3153 -0.160157,-1.9434 0.124652,-0.2757 0.212355,-0.398 0.25586,-0.373 z m 0.341797,-0.5918 c -0.0836,-0.113 -0.578925,0.4384 -0.771485,0.8593 -0.20422,0.4464 -0.243287,1.1558 -0.08594,1.5704 0.23901,0.6298 0.888671,1.3194 0.888672,0.9433 l 0.002,0 c 0,-0.062 -0.06546,-0.4523 -0.144532,-0.8691 -0.13272,-0.6999 -0.131317,-0.8222 0.0078,-1.5996 0.0833,-0.4629 0.129645,-0.869 0.103516,-0.9043 z m 2.421872,-2.5274 c 0.01617,-0.016 0.03066,0.017 0.03711,0.1192 0.01527,0.243 0.01461,0.243 0.09961,0 0.0673,-0.1926 0.0739,-0.1658 0.0332,0.123 -0.02823,0.2005 -0.08997,0.5697 -0.13867,0.8203 -0.11616,0.598 -0.17506,0.577 -0.16406,-0.06 0.0078,-0.4494 0.0843,-0.9522 0.13281,-1.002 z m -0.45117,-2.42527 c -0.222927,-0.0366 -0.228551,0.20263 -0.09961,0.87497 0.0909,0.4737 0.14063,1.2672 0.14063,2.2442 0,0.8313 0.0299,1.5522 0.0664,1.6016 0.12191,0.1646 0.44357,-0.5453 0.70117,-1.545 0.44147,-1.7136 0.29131,-2.61972 -0.50976,-3.05272 -0.1256,-0.0679 -0.22452,-0.11085 -0.29883,-0.12305 z m -0.408202,-4.56248 c -0.36787,0 -0.499506,0.0643 -0.759766,0.37305 -0.72189,0.85635 -1.000131,2.28775 -0.712891,3.66602 0.0682,0.3273 0.196425,0.25349 0.333985,-0.19141 0.16981,-0.54912 0.630275,-1.23471 0.947265,-1.41211 0.21537,-0.12053 0.310516,-0.11158 0.542969,0.0508 0.42516,0.29705 0.48705,0.16254 0.43164,-0.92969 -0.0656,-1.29366 -0.19822,-1.55664 -0.783202,-1.55664 z"
         style="fill:#d04f00;fill-opacity:1;stroke:none"
         id="path4664"
         inkscape:connector-curvature="0" />
      <path
         id="path4422"
         d="m 93.280789,1033.3455 c 0.56333,-0.7827 1.05099,-2.0356 1.25334,-3.22 0.0991,-0.5803 0.10076,-0.8784 0.009,-1.6404 -0.17133,-1.4223 -0.67537,-3.0992 -1.08013,-3.5933 -0.23565,-0.2878 -0.39914,-1.0686 -0.32247,-1.5402 0.0684,-0.4208 -0.007,-0.4465 -0.28357,-0.096 -0.11196,0.1421 -0.26057,0.2288 -0.33022,0.1927 -0.12539,-0.065 -0.78186,-2.3015 -0.78186,-2.6635 0,-0.1034 -0.0572,-0.2523 -0.12719,-0.3306 -0.1051,-0.1179 -0.15195,-0.027 -0.2698,0.5202 -0.0785,0.3645 -0.142627,0.7178 -0.142627,0.7851 0,0.067 -0.11867,0.6129 -0.26371,1.2125 -0.18065,0.7469 -0.44814,1.4719 -0.84937,2.3019 -0.32212,0.6664 -0.61255,1.3563 -0.6454,1.5332 -0.0722,0.3886 -0.27231,0.4117 -0.547,0.063 -0.46552,-0.5909 -0.69354,0.048 -0.69886,1.9595 -0.003,1.1447 0.0323,1.5348 0.19616,2.1573 0.11002,0.418 0.20004,0.8764 0.20004,1.0188 0,0.8431 0.42257,1.6857 0.84404,1.6832 0.26526,0 0.99026,-0.5927 1.6253,-1.3251 0.294647,-0.3399 0.568707,-0.6179 0.608997,-0.6179 0.0918,0 0.20022,0.353 0.38066,1.2398 0.13032,0.6405 0.38133,1.0689 0.62619,1.0689 0.0484,0 0.31772,-0.3192 0.59848,-0.7092 z"
         style="fill:#ffffff;stroke:#ffffff"
         inkscape:connector-curvature="0" />
      <path
         d="m 91.542089,1020.4042 c 0.021,-5e-4 0.0421,0.017 0.0684,0.047 0.07,0.078 0.12695,0.2267 0.12695,0.3301 0,0.362 0.65782,2.5992 0.78321,2.664 0.0696,0.036 0.21811,-0.051 0.33007,-0.1933 0.27657,-0.3505 0.35161,-0.3251 0.28321,0.096 -0.0767,0.4716 0.0866,1.2532 0.32226,1.541 0.40476,0.4941 0.90875,2.1714 1.08008,3.5937 0.0918,0.762 0.0913,1.0584 -0.008,1.6387 -0.20235,1.1844 -0.69058,2.438 -1.25391,3.2207 -0.28076,0.3901 -0.55121,0.709 -0.59961,0.709 -0.24486,0 -0.49468,-0.4279 -0.625,-1.0684 -0.18044,-0.8867 -0.28906,-1.2402 -0.38086,-1.2402 -0.0403,0 -0.31472,0.2774 -0.609368,0.6172 -0.63504,0.7325 -1.35974,1.3262 -1.625,1.3262 -0.42147,0 -0.84375,-0.8406 -0.84375,-1.6836 0,-0.1424 -0.0911,-0.5996 -0.20117,-1.0176 -0.16385,-0.6225 -0.19832,-1.0135 -0.19532,-2.1582 0.005,-1.9114 0.2337,-2.5499 0.69922,-1.959 0.27468,0.3486 0.47468,0.3242 0.54688,-0.064 0.0329,-0.1769 0.32241,-0.8668 0.64453,-1.5332 0.40122,-0.83 0.66896,-1.5539 0.84961,-2.3008 0.14504,-0.5996 0.26367,-1.1456 0.26367,-1.2129 0,-0.067 0.0641,-0.4206 0.142578,-0.7851 0.0884,-0.4107 0.13813,-0.565 0.20117,-0.5664 z m -0.478518,-13.856 -0.54687,0.959 c -1.66319,2.9221 -2.67789,5.5414 -2.79102,7.205 -0.12271,1.8045 0.38484,2.7015 1.69336,2.9883 0.68442,0.1501 0.71953,0.424 0.33399,2.5938 -0.46494,2.6166 -1.06089,4.3396 -1.36133,3.9336 -0.23898,-0.3229 -0.25038,-2.9255 -0.0176,-3.9414 0.0872,-0.3804 -0.13629,-0.2257 -0.41015,0.2851 -0.31932,0.5955 -0.63282,1.6782 -0.63282,2.1836 0,0.2 -0.10405,0.6939 -0.23047,1.0996 -0.17869,0.5737 -0.22827,0.9454 -0.22851,1.668 -0.002,4.1885 0.6179,7.4113 1.77539,9.2383 0.58095,0.9169 1.3877,1.1492 1.91406,0.5508 0.15219,-0.173 0.27734,-0.4244 0.27735,-0.5586 0,-0.3274 0.27003,-1.5887 0.37109,-1.7344 0.128458,-0.1854 0.303378,0.1577 0.568358,1.1133 0.33454,1.2063 0.51601,1.4941 0.94531,1.4941 0.48695,0 1.11539,-0.6082 1.69531,-1.6406 0.8124,-1.4462 1.00049,-2.0638 1.36524,-4.4746 0.30584,-2.0217 0.18809,-3.2785 -0.40821,-4.334 -0.93811,-1.6606 -0.97865,-1.9156 -0.48046,-3.1035 0.28825,-0.6873 0.3052,-0.7856 0.30078,-1.8789 -0.004,-1.1095 -0.18678,-2.2393 -0.42578,-2.6465 -0.12554,-0.214 -0.13196,-0.1905 -0.24024,0.7656 -0.18595,1.6419 -0.42991,2.1476 -0.91406,1.8965 -0.61723,-0.3202 -1.06836,-1.3523 -1.06836,-2.4453 0,-0.9632 0.15789,-1.3662 1.0918,-2.7735 0.88123,-1.3278 1.0664,-1.7368 1.0664,-2.3632 0,-0.9567 -0.57928,-1.8825 -2.17578,-3.4786 -0.87184,-0.8714 -1.20727,-1.4046 -1.376948,-2.1855 l -0.0899,-0.416 z m -1.94726,-1.7637 c -0.0435,-0.025 -0.13326,0.097 -0.25781,0.3731 -0.28348,0.6281 -0.22303,1.3468 0.16211,1.9433 0.23922,0.3706 0.27289,0.2345 0.13086,-0.5273 -0.10545,-0.5657 -0.11614,-0.8665 -0.0469,-1.2754 0.0536,-0.3163 0.0553,-0.4887 0.0117,-0.5137 z m 2.763668,-3.1191 c -0.0485,0.05 -0.12501,0.5525 -0.13281,1.0019 -0.011,0.6376 0.0459,0.659 0.16211,0.06 0.0487,-0.2505 0.11239,-0.6198 0.14062,-0.8203 0.0407,-0.2888 0.0341,-0.3137 -0.0332,-0.1211 -0.085,0.243 -0.0863,0.243 -0.10156,0 -0.006,-0.1024 -0.019,-0.1376 -0.0352,-0.1211 z"
         style="fill:#f8f106;fill-opacity:1;stroke:#f8f106;stroke-width:0.5;stroke-miterlimit:4;stroke-dasharray:none;stroke-opacity:1"
         id="path4164-8"
         inkscape:connector-curvature="0" />
    </g>
    <g
       id="g4764"
       transform="matrix(4.1864012,0,0,1.9755051,-48.741511,-1032.7219)"
       style="opacity:0.79">
      <path
         d="m 27.304825,1012.2938 c 0.10098,0.029 0.191406,0.1561 0.191406,0.3554 0,0.2186 -0.05389,0.3129 -0.19336,0.3399 -0.23507,0.045 -0.332646,-0.1356 -0.253906,-0.4707 0.04384,-0.1867 0.15488,-0.2539 0.25586,-0.2246 z m -0.01758,-0.2325 c -0.119384,-0.01 -0.235893,0.098 -0.320313,0.3184 -0.12063,0.3151 -0.12055,0.3808 0,0.6133 0.17087,0.3296 0.40831,0.3351 0.625,0.012 0.15369,-0.2295 0.156403,-0.2806 0.0332,-0.5781 -0.09677,-0.2337 -0.218507,-0.3566 -0.33789,-0.3653 z m 4.173838,-9.6838 0.378906,1.5918 c 0.411486,1.7289 0.517252,2.5884 0.601562,4.9101 0.07834,2.1574 0.08662,2.2011 0.644532,3.1856 0.671537,1.1849 0.835937,1.6948 0.835937,2.5859 0,0.8421 -0.203995,1.5488 -0.671875,2.3203 -0.497578,0.8204 -0.58887,1.3413 -0.396484,2.2774 0.06742,0.3281 0.345246,0.8161 0.9375,1.6523 0.660265,0.9323 0.863139,1.3037 0.943359,1.7227 0.05621,0.2935 0.120921,0.624 0.144531,0.7344 0.06748,0.3159 0.227817,3.0452 0.279297,4.7695 0.03049,1.0215 0.0068,1.8259 -0.06641,2.3086 -0.172728,1.1391 -0.664098,2.403 -1.230469,3.1621 -0.526493,0.7058 -1.47764,1.4539 -2.019531,1.5898 -0.300951,0.076 -0.34245,0.05 -0.464844,-0.2695 -0.07391,-0.1932 -0.180601,-0.7011 -0.238281,-1.1309 -0.122769,-0.9148 -0.223718,-1.2148 -0.412109,-1.2148 -0.167072,0 -0.457436,0.8501 -0.541016,1.5859 -0.03384,0.2979 -0.116957,0.6912 -0.185547,0.875 -0.166539,0.4468 -0.525524,0.4412 -0.984375,-0.014 -0.523097,-0.5186 -1.499944,-1.9427 -1.783203,-2.5996 -1.10395,-2.5607 -1.148642,-6.0207 -0.140625,-10.8438 0.154262,-0.7381 0.472469,-2.5755 0.595703,-3.4414 0.06243,-0.4385 0.247471,-0.2411 0.332031,0.3535 0.127028,0.8932 0.231082,0.9259 0.732422,0.2383 0.552996,-0.7586 0.566904,-1.0749 0.09375,-1.9648 -0.811903,-1.5268 -0.958022,-2.5485 -0.767578,-5.3438 0.121985,-1.7905 0.185168,-2.0746 0.699219,-3.1094 0.192648,-0.3878 0.521921,-1.2616 0.732422,-1.9414 0.519569,-1.6781 0.663472,-1.7126 0.949218,-0.2304 0.155564,0.8069 0.200793,0.9199 0.367188,0.9199 0.181625,0 0.311949,-0.7711 0.484375,-2.8555 l 0.150391,-1.8242 z m -0.205078,-0.7556 c -0.0201,0 -0.02738,0.036 -0.02734,0.1035 9.1e-4,1.7275 -0.151522,3.947 -0.326172,4.754 -0.0824,0.3807 -0.193468,0.2249 -0.304688,-0.4258 -0.13648,-0.7986 -0.312592,-1.1836 -0.539062,-1.1836 -0.22684,0 -0.374216,0.3175 -0.722656,1.5527 -0.15616,0.5537 -0.416205,1.268 -0.578125,1.586 -0.5993,1.1772 -0.684788,1.5251 -0.830079,3.4082 -0.179589,2.3277 -0.0838,3.3929 0.427735,4.7675 0.43869,1.1788 0.481009,1.9598 0.136719,2.5 l -0.216797,0.3418 -0.06055,-0.3652 c -0.133,-0.8033 -0.196998,-0.9727 -0.367188,-0.9727 -0.19396,0 -0.292196,0.3585 -0.535156,1.9454 -0.0819,0.5347 -0.244218,1.4087 -0.361328,1.9433 -0.6044,2.7592 -0.852141,5.3905 -0.681641,7.2363 0.20955,2.2685 0.65984,3.6141 1.71875,5.1348 0.67869,0.9748 1.352785,1.6578 1.640625,1.6621 0.0846,0 0.236681,-0.1188 0.337891,-0.2656 0.17461,-0.2532 0.357901,-0.9167 0.363281,-1.3125 10e-4,-0.1003 0.0844,-0.4252 0.183594,-0.7207 0.22418,-0.6676 0.321871,-0.5648 0.488281,0.5098 0.0678,0.4381 0.191328,0.973 0.273438,1.1875 0.14299,0.3736 0.16575,0.3868 0.55664,0.3144 0.623,-0.1153 1.589815,-0.88 2.171875,-1.7187 0.97213,-1.4008 1.438285,-3.3182 1.328125,-5.4649 -0.28165,-5.4883 -0.353546,-5.9065 -1.222656,-7.0488 -0.78887,-1.0369 -0.825549,-1.1626 -0.724609,-2.5938 0.069,-0.9778 0.147573,-1.4006 0.376953,-2.0527 0.20638,-0.5867 0.299682,-1.0477 0.326172,-1.6152 0.0446,-0.9553 -0.05163,-1.3044 -0.751953,-2.7559 -0.57878,-1.1997 -0.600622,-1.3227 -0.800782,-4.3691 -0.12543,-1.9088 -0.17613,-2.2467 -0.58789,-3.9649 -0.24756,-1.033 -0.509865,-1.9462 -0.583985,-2.0293 -0.05429,-0.061 -0.08732,-0.09 -0.107421,-0.088 z m 0.613281,-4.37088 0.316406,0.19336 c 0.3101,0.18989 0.315489,0.20494 0.255859,0.74219 -0.03343,0.30118 -0.100164,0.64277 -0.146484,0.75977 -0.237947,0.6007 -0.597125,-0.323 -0.482422,-1.24024 l 0.05664,-0.45508 z m 0.439453,-0.584 c 0.04947,0.0413 0.08984,0.18278 0.08984,0.3125 0,0.12971 -0.04038,0.23437 -0.08984,0.23437 -0.04947,0 -0.08984,-0.13952 -0.08984,-0.31054 0,-0.17635 0.03883,-0.27893 0.08984,-0.23633 z m -0.171875,-0.8027 c -0.153955,-0.0112 -0.312602,0.0912 -0.419922,0.3125 -0.18927,0.39029 -0.156581,2.7051 0.04297,3.0293 0.20843,0.3387 0.5687,0.19939 0.75,-0.29101 0.20493,-0.55421 0.218324,-2.16544 0.02148,-2.67969 -0.09018,-0.23562 -0.240576,-0.35993 -0.394531,-0.3711 z m -0.976603,-7.17969 c -0.386314,0.0743 -0.877434,0.7333 -1.095703,1.51954 -0.16473,0.59336 -0.115042,3.19761 0.08594,4.49805 0.18249,1.18065 0.335712,1.7832 0.451172,1.7832 0.0345,0 0.08882,-0.55067 0.123047,-1.22266 0.0979,-1.9213 0.499343,-3.30094 1.214843,-4.17578 0.11972,-0.14639 0.189453,-0.37805 0.189453,-0.64063 0,-0.6837 -0.446226,-1.64927 -0.810546,-1.75586 -0.04979,-0.0146 -0.103016,-0.0165 -0.158204,-0.006 z"
         style="fill:#d04f00;fill-opacity:1;stroke:none"
         id="path4646"
         inkscape:connector-curvature="0" />
      <path
         id="path4424"
         d="m 29.576542,1033.7465 c 0.10851,-0.1027 0.24266,-0.4171 0.2981,-0.6987 0.12453,-0.6324 0.48781,-1.3018 0.70651,-1.3018 0.10612,0 0.28322,0.2767 0.50498,0.789 0.42748,0.9876 0.70192,1.2634 1.01627,1.0213 0.12131,-0.093 0.29894,-0.3613 0.39474,-0.5952 0.15282,-0.3731 0.16886,-0.5995 0.13075,-1.846 -0.0327,-1.0688 -0.0102,-1.5503 0.0907,-1.9441 0.19317,-0.754 0.12792,-2.1876 -0.13229,-2.9061 -0.18295,-0.5051 -0.19289,-0.6219 -0.10178,-1.1958 0.16124,-1.0158 0.0642,-3.3305 -0.17418,-4.154 -0.21569,-0.7452 -1.07116,-2.5487 -1.24538,-2.6255 -0.0795,-0.035 -0.10588,0.2672 -0.0998,1.1452 0.0142,2.0559 -0.21852,2.5793 -1.39329,3.1334 -1.00219,0.4727 -1.40954,1.0061 -1.83603,2.4044 -0.21004,0.6886 -0.23117,0.9101 -0.22889,2.399 0.002,1.2519 0.0478,1.8897 0.19349,2.6928 0.35426,1.952 0.92696,3.4952 1.39104,3.7482 0.26428,0.1441 0.26272,0.1443 0.48509,-0.066 z"
         style="fill:#ffffff;stroke:#ffffff"
         inkscape:connector-curvature="0" />
      <path
         d="m 31.057711,1018.285 c 0.17422,0.077 1.03041,1.8818 1.2461,2.627 0.23837,0.8236 0.33507,3.1386 0.17383,4.1543 -0.0911,0.5739 -0.0814,0.6902 0.10156,1.1953 0.2602,0.7185 0.32599,2.1523 0.13281,2.9063 -0.1009,0.3938 -0.12254,0.8745 -0.0898,1.9433 0.0381,1.2465 0.0219,1.4727 -0.13086,1.8457 -0.0958,0.234 -0.27518,0.5023 -0.39649,0.5957 -0.31436,0.2422 -0.58813,-0.034 -1.01562,-1.0215 -0.22175,-0.5123 -0.39779,-0.789 -0.50391,-0.789 -0.2187,0 -0.58251,0.6703 -0.70703,1.3027 -0.0554,0.2816 -0.19031,0.5945 -0.29883,0.6973 -0.22238,0.2106 -0.22009,0.2105 -0.48437,0.066 -0.46409,-0.2531 -1.03638,-1.796 -1.39063,-3.7481 -0.1457,-0.8031 -0.19136,-1.4415 -0.19336,-2.6933 -0.002,-1.489 0.0185,-1.7098 0.22852,-2.3985 0.42649,-1.3982 0.83374,-1.9316 1.83594,-2.4043 1.17477,-0.554 1.40678,-1.0769 1.39258,-3.1328 -0.006,-0.878 0.0201,-1.1814 0.0996,-1.1465 z m -3.76953,-5.979 c -0.10098,-0.029 -0.21397,0.038 -0.25781,0.2246 -0.0787,0.3351 0.0188,0.516 0.25391,0.4707 0.13947,-0.027 0.19531,-0.1213 0.19531,-0.3398 0,-0.1993 -0.0904,-0.3263 -0.19141,-0.3555 z m 4.15625,-9.9121 -0.15039,1.8222 c -0.17243,2.0844 -0.3047,2.8555 -0.48633,2.8555 -0.16639,0 -0.20967,-0.113 -0.36523,-0.9199 -0.28575,-1.4822 -0.42965,-1.4476 -0.94922,0.2305 -0.2105,0.6798 -0.53977,1.5535 -0.73242,1.9414 -0.51405,1.0347 -0.57918,1.3189 -0.70117,3.1093 -0.19044,2.7954 -0.0423,3.8189 0.76953,5.3457 0.47316,0.8899 0.45726,1.2044 -0.0957,1.9629 -0.50134,0.6877 -0.60344,0.6549 -0.73047,-0.2382 -0.0846,-0.5947 -0.26961,-0.7921 -0.33203,-0.3536 -0.12324,0.8659 -0.44145,2.7033 -0.59571,3.4414 -1.00802,4.8231 -0.96332,8.2851 0.14063,10.8458 0.28326,0.6569 1.2601,2.081 1.7832,2.5996 0.45885,0.4548 0.81588,0.4582 0.98242,0.012 0.0686,-0.1838 0.15366,-0.5771 0.1875,-0.875 0.0836,-0.7358 0.372,-1.584 0.53907,-1.584 0.18839,0 0.28934,0.2981 0.4121,1.2129 0.0577,0.4298 0.16633,0.9396 0.24024,1.1328 0.12239,0.3197 0.16389,0.3431 0.46484,0.2676 0.54189,-0.136 1.49109,-0.8841 2.01758,-1.5899 0.56637,-0.7591 1.05969,-2.023 1.23242,-3.1621 0.0732,-0.4827 0.0949,-1.287 0.0645,-2.3086 -0.0515,-1.7242 -0.20987,-4.4536 -0.27735,-4.7695 -0.0236,-0.1105 -0.0883,-0.4409 -0.14453,-0.7344 -0.0802,-0.419 -0.2831,-0.7884 -0.94336,-1.7207 -0.59226,-0.8362 -0.87009,-1.3262 -0.9375,-1.6543 -0.19239,-0.9361 -0.10109,-1.4569 0.39649,-2.2773 0.46788,-0.7715 0.67187,-1.4782 0.67187,-2.3203 0,-0.8912 -0.1644,-1.4011 -0.83594,-2.586 -0.55791,-0.9845 -0.56619,-1.0281 -0.64453,-3.1855 -0.0843,-2.3217 -0.19007,-3.1813 -0.60156,-4.9102 l -0.37891,-1.5898 z m 0.40821,-5.12905 -0.0566,0.45508 c -0.11471,0.91733 0.24448,1.84103 0.48242,1.24023 0.0463,-0.1169 0.1111,-0.4586 0.14453,-0.75976 0.0596,-0.53725 0.0562,-0.5523 -0.25391,-0.74219 l -0.3164,-0.19336 z m 0.4375,-0.5821 c -0.051,-0.0426 -0.0899,0.058 -0.0899,0.23438 0,0.17102 0.0404,0.31054 0.0899,0.31054 0.0495,0 0.0898,-0.10466 0.0898,-0.23437 0,-0.12972 -0.0404,-0.26925 -0.0898,-0.31055 z"
         style="fill:#f8f106;fill-opacity:1;stroke:#f8f106;stroke-width:0.5;stroke-miterlimit:4;stroke-dasharray:none;stroke-opacity:1"
         id="path4528"
         inkscape:connector-curvature="0" />
    </g>
  </g>
</svg>
